<svg xmlns="http://www.w3.org/2000/svg" width="270.529" height="203.693" viewBox="0 0 270.529 203.693">
  <g id="Group_32418" data-name="Group 32418" transform="translate(-14625.197 -20159.324)">
    <path id="Path_17962" data-name="Path 17962" d="M14785.953,19765.047l-.229,132.051,31.855-29.023Z" transform="translate(-25.262 459.865)" fill="#d7deeb" stroke="#3b76cb" stroke-width="0.5" stroke-dasharray="3"/>
    <path id="Path_17963" data-name="Path 17963" d="M14883.965,19688.043l-98.229,65.379,55.264,22.188Z" transform="translate(-25.266 472.002)" fill="#d7deeb" stroke="#3b76cb" stroke-width="0.5" stroke-dasharray="3"/>
    <path id="Path_17964" data-name="Path 17964" d="M14822.365,19883.961l18.988-95.848-55.42-22.48Z" transform="translate(-25.298 459.771)" fill="#ddd" stroke="#3b76cb" stroke-width="0.5" stroke-dasharray="3"/>
    <path id="Path_17965" data-name="Path 17965" d="M14890.793,19808.34l6.771,49.844-42.781,48.859-25.734-18.949,19.326-96.25Z" transform="translate(-32.097 455.638)" fill="#d8deea" stroke="#3b76cb" stroke-width="0.5" stroke-dasharray="3"/>
    <path id="Path_17966" data-name="Path 17966" d="M14927.67,19688.043l3.316,69.037-36.414,37.139-43.826-19.285,43.826-86.891Z" transform="translate(-35.514 472.002)" fill="#a9b8d5" stroke="#3b76cb" stroke-width="0.5" stroke-dasharray="3"/>
    <path id="Path_17962-2" data-name="Path 17962" d="M14817.354,19765.047l.229,132.051-31.855-29.023Z" transform="translate(-57.118 459.865)" fill="#a9b8d5" stroke="#3b76cb" stroke-width="0.5" stroke-dasharray="3"/>
    <path id="Path_17963-2" data-name="Path 17963" d="M14785.736,19688.043l98.229,65.379-55.264,22.188Z" transform="translate(-123.509 472.002)" fill="#a9b8d5" stroke="#3b76cb" stroke-width="0.5" stroke-dasharray="3"/>
    <path id="Path_17964-2" data-name="Path 17964" d="M14804.919,19883.961l-18.988-95.848,55.42-22.48Z" transform="translate(-81.062 459.771)" fill="#ddd" stroke="#3b76cb" stroke-width="0.5" stroke-dasharray="3"/>
    <path id="Path_17965-2" data-name="Path 17965" d="M14835.819,19808.34l-6.773,49.844,42.785,48.859,25.732-18.949-19.326-96.25Z" transform="translate(-173.592 455.638)" fill="#a9b8d5" stroke="#3b76cb" stroke-width="0.5" stroke-dasharray="3"/>
    <path id="Path_17966-2" data-name="Path 17966" d="M14854.063,19688.043l-3.316,69.037,36.416,37.139,43.826-19.285-43.826-86.891Z" transform="translate(-225.294 472.002)" fill="#d7deeb" stroke="#3b76cb" stroke-width="0.5" stroke-dasharray="3"/>
  </g>
</svg>
