<svg xmlns="http://www.w3.org/2000/svg" width="281.81" height="286.951" viewBox="0 0 281.81 286.951">
  <g id="Group_32446" data-name="Group 32446" transform="translate(-8034.157 -22442.582)">
    <path id="Path_17947" data-name="Path 17947" d="M9000.586,21046.395h27.063l-1.113-99.531,4.824-35.043-6.982,8.535-8.656,17.059-5.437,23.686Z" transform="translate(-851.863 1683.038)" fill="#a9b8d5" stroke="#2050b1" stroke-width="0.2" stroke-dasharray="3"/>
    <path id="Path_17944" data-name="Path 17944" d="M8758.744,20815.129l52.21,57.547,5.244-22.719-48.9-44.98Z" transform="translate(-652.523 1771.106)" fill="#d8deea" stroke="#2050b1" stroke-width="0.2" stroke-dasharray="3"/>
    <path id="Path_17941" data-name="Path 17941" d="M8714.749,20475.223l6.139,8.369-8.638,17.51-21.878-20.268-27.129-24.748,2.146-1.248L8632.6,20381.8l54.478,55.02Z" transform="translate(-548.549 2119.916)" fill="#ddd" stroke="#2050b1" stroke-width="0.2" stroke-dasharray="3"/>
    <path id="Path_17943" data-name="Path 17943" d="M8349.859,20799.7l39.316,47.885,43.152-50.146Z" transform="translate(-315.495 1777.319)" fill="#a9b8d5" stroke="#2050b1" stroke-width="0.2" stroke-dasharray="3"/>
    <path id="Path_17945" data-name="Path 17945" d="M8623.834,20882.768l-51.266,18.553,32.869-39.043Z" transform="translate(-499.065 1723.875)" fill="#3b76cb" stroke="#2050b1" stroke-width="0.2" stroke-dasharray="3"/>
    <path id="Path_17942" data-name="Path 17942" d="M8669.982,20116.068l46.873-70.271-84.83,59.082Z" transform="translate(-548.074 2396.867)" fill="#ddd" stroke="#2050b1" stroke-width="0.2" stroke-dasharray="3"/>
    <path id="Path_17946" data-name="Path 17946" d="M8900.039,20134.867l.488-87.766-6.311-1.117-46.967,70.316Z" transform="translate(-725.475 2396.713)" fill="#d7deeb" stroke="#2050b1" stroke-width="0.2" stroke-dasharray="3"/>
    <path id="Path_17949" data-name="Path 17949" d="M9036.844,20157.693l9.382-75.7" transform="translate(-881.749 2367.03)" fill="none" stroke="#2050b1" stroke-width="0.2" stroke-dasharray="3"/>
    <path id="Path_17948" data-name="Path 17948" d="M8943.213,20577.035l35.823-25.246,4.992,63.016-7.068,9.064Z" transform="translate(-804.573 1979.798)" fill="#d7deeb" stroke="#2050b1" stroke-width="0.2" stroke-dasharray="3"/>
    <path id="Path_17940" data-name="Path 17940" d="M8399.973,22717.662l-49.6,75.182,82.361-2.023Z" transform="translate(-315.92 -215.95)" fill="#d8deea" stroke="#2050b1" stroke-width="0.2" stroke-dasharray="3"/>
    <path id="Path_17957" data-name="Path 17957" d="M9048.768,21072.516h-27.062l1.113-99.531-.471-29.475,2.629,2.967,8.656,17.059,5.437,23.688Z" transform="translate(-847.367 1656.918)" fill="#d7deeb" stroke="#2050b1" stroke-width="0.2" stroke-dasharray="3"/>
    <path id="Path_17954" data-name="Path 17954" d="M8816.2,20815.129l-52.211,57.547-5.243-22.719,48.9-44.98Z" transform="translate(-572.295 1771.106)" fill="#a9b8d6" stroke="#2050b1" stroke-width="0.2" stroke-dasharray="3"/>
    <path id="Path_17951" data-name="Path 17951" d="M8638.742,20475.223l-6.139,8.369,8.639,17.51,21.878-20.268,27.128-24.748-2.146-1.248,32.788-73.041-54.478,55.02Z" transform="translate(-454.819 2119.916)" fill="#ddd" stroke="#2050b1" stroke-width="0.2" stroke-dasharray="3"/>
    <path id="Path_17953" data-name="Path 17953" d="M8432.327,20799.7l-39.316,47.885-43.153-50.146Z" transform="translate(-116.567 1777.319)" fill="#d7deeb" stroke="#2050b1" stroke-width="0.2" stroke-dasharray="3"/>
    <path id="Path_17955" data-name="Path 17955" d="M8572.567,20882.768l51.267,18.553-32.869-39.043Z" transform="translate(-347.213 1723.875)" fill="#3b76cb" stroke="#2050b1" stroke-width="0.2" stroke-dasharray="3"/>
    <path id="Path_17952" data-name="Path 17952" d="M8678.9,20116.068l-46.874-70.271,84.831,59.082Z" transform="translate(-450.682 2396.867)" fill="#ddd" stroke="#2050b1" stroke-width="0.2" stroke-dasharray="3"/>
    <path id="Path_17956" data-name="Path 17956" d="M8860.8,20134.984l.4-88.08,6.441-.92,46.968,70.316Z" transform="translate(-686.259 2396.713)" fill="#a9b8d5" stroke="#2050b1" stroke-width="0.2" stroke-dasharray="3"/>
    <path id="Path_17959" data-name="Path 17959" d="M9046.226,20157.693l-9.382-75.7" transform="translate(-851.196 2367.03)" fill="none" stroke="#2050b1" stroke-width="0.2" stroke-dasharray="3"/>
    <path id="Path_17958" data-name="Path 17958" d="M9001.894,20577.418l-37.007-25.162.566,68.725,2.693,3.271Z" transform="translate(-790.409 1979.413)" fill="#a9b8d5" stroke="#2050b1" stroke-width="0.2" stroke-dasharray="3"/>
    <path id="Path_17960" data-name="Path 17960" d="M8996.494,20419.871l-37.9,11.543-53.771,18.605,37.015,25.334Z" transform="translate(-730.457 2081.587)" fill="#d8deea" stroke="#2050b1" stroke-width="0.2" stroke-dasharray="3"/>
    <path id="Path_17961" data-name="Path 17961" d="M8910.883,20421.6l37.755,10.91,52.853,18.934-35.788,25.367Z" transform="translate(-826.948 2080.161)" fill="#a9b8d5" stroke="#2050b1" stroke-width="0.2" stroke-dasharray="3"/>
    <path id="Path_17950" data-name="Path 17950" d="M8383.138,22717.662l49.6,75.182-82.361-2.023Z" transform="translate(-117.068 -215.95)" fill="#a9b8d5" stroke="#2050b1" stroke-width="0.2" stroke-dasharray="3"/>
  </g>
</svg>
