<svg id="Group_27959" data-name="Group 27959" xmlns="http://www.w3.org/2000/svg" xmlns:xlink="http://www.w3.org/1999/xlink" width="239.332" height="293.665" viewBox="0 0 239.332 293.665">
  <defs>
    <clipPath id="clip-path">
      <rect id="Rectangle_8999" data-name="Rectangle 8999" width="239.332" height="293.665" fill="none"/>
    </clipPath>
    <clipPath id="clip-path-3">
      <rect id="Rectangle_8993" data-name="Rectangle 8993" width="234.363" height="164.504" transform="translate(1.733 10.299)" fill="none"/>
    </clipPath>
    <clipPath id="clip-path-4">
      <rect id="Rectangle_8995" data-name="Rectangle 8995" width="83.313" height="39.773" transform="translate(115.107 153.813)" fill="none"/>
    </clipPath>
    <clipPath id="clip-path-5">
      <rect id="Rectangle_8994" data-name="Rectangle 8994" width="83.31" height="39.772" transform="translate(115.107 153.814)" fill="none"/>
    </clipPath>
    <clipPath id="clip-path-6">
      <rect id="Rectangle_8997" data-name="Rectangle 8997" width="13.52" height="16.512" transform="translate(161.118 104.164)" fill="none"/>
    </clipPath>
    <clipPath id="clip-path-7">
      <rect id="Rectangle_8996" data-name="Rectangle 8996" width="13.52" height="16.51" transform="translate(161.118 104.166)" fill="none"/>
    </clipPath>
  </defs>
  <g id="Group_27958" data-name="Group 27958" clip-path="url(#clip-path)">
    <path id="Path_12733" data-name="Path 12733" d="M221.122,220.146H18.211V17.235H221.122ZM45.561,192.8H193.772V44.585H45.561Z" fill="#1c262a"/>
    <path id="Path_12734" data-name="Path 12734" d="M210.324,0,77.2,133.122,29.009,84.928,0,113.936l77.2,77.2L239.332,29.01Z" fill="#ffba11"/>
    <g id="Group_27957" data-name="Group 27957">
      <g id="Group_27956" data-name="Group 27956" clip-path="url(#clip-path)">
        <g id="Group_27945" data-name="Group 27945" opacity="0.2">
          <g id="Group_27944" data-name="Group 27944">
            <g id="Group_27943" data-name="Group 27943" clip-path="url(#clip-path-3)">
              <path id="Path_12735" data-name="Path 12735" d="M29.007,84.921,46.99,102.9H11.032Z" fill="#fff"/>
              <path id="Path_12736" data-name="Path 12736" d="M200.178,68.158,165.43,102.906H107.416l34.748-34.748Z" fill="#fff"/>
              <path id="Path_12737" data-name="Path 12737" d="M1.733,115.665l13.873,13.873H73.621L59.749,115.665Z" fill="#fff"/>
              <path id="Path_12738" data-name="Path 12738" d="M152.678,115.665,138.8,129.538H80.789l13.873-13.873Z" fill="#fff"/>
              <path id="Path_12739" data-name="Path 12739" d="M200.028,10.3,186.155,24.172H234.5L220.624,10.3Z" fill="#fff"/>
              <path id="Path_12740" data-name="Path 12740" d="M178.087,32.241,173.9,36.426h58.009l4.185-4.185Z" fill="#fff"/>
              <path id="Path_12741" data-name="Path 12741" d="M56.681,170.618,60.87,174.8H93.539l4.185-4.185Z" fill="#fff"/>
            </g>
          </g>
        </g>
        <path id="Path_12742" data-name="Path 12742" d="M60.505,266.63c1.713,1,54.437,12.022,56.713,11.172.865-.318,2.918-7.9,5.138-17.139.48-1.995.963-4.057,1.442-6.154,3.125-13.612,6.124-28.128,6.124-28.128l-35.247-7.475L89.52,247.24l-1.136,6.219s-22.074,4.809-24.471,6.009L60.5,266.629" fill="#c75f56"/>
        <path id="Path_12743" data-name="Path 12743" d="M121.5,264.189c-1.877,7.573-3.53,13.335-4.282,13.616-2.273.852-55-10.177-56.714-11.177l3.406-7.16c1.872-1.043,10.45-2.853,17.1-4.365l5.77,6.952c18.544,1.348,30.779,1.96,34.715,2.133" fill="#1c262a"/>
        <path id="Path_12744" data-name="Path 12744" d="M108.089,293.6c1.912.532,55.7-2.247,57.688-3.648.755-.528-.514-12.331-1.077-14.408-1.908-7.036-11.8-38.021-11.8-38.021l-35.989,1.754,14.78,34.483S111.572,284.03,109.56,285.8l-1.472,7.793" fill="#c75f56"/>
        <path id="Path_12745" data-name="Path 12745" d="M165.776,289.945c-1.984,1.4-55.772,4.183-57.689,3.654l1.471-7.8s5.8-3.488,10.731-6.1c0,0,44.666-2.291,44.924-2.6.554,6.159.968,12.558.562,12.839" fill="#1c262a"/>
        <path id="Path_12746" data-name="Path 12746" d="M191.541,187.207l-48.9,7.263,22.685,71.507-39.336,4.241S92.031,195.874,104.173,174.4c6.555-11.6,35.446-6.976,52.881-9.1,5.258-.641,7.728-11.486,7.728-11.486h31.149s7.86,19.745-4.393,33.4" fill="#344952"/>
        <g id="Group_27950" data-name="Group 27950" opacity="0.1">
          <g id="Group_27949" data-name="Group 27949">
            <g id="Group_27948" data-name="Group 27948" clip-path="url(#clip-path-4)">
              <g id="Group_27947" data-name="Group 27947">
                <g id="Group_27946" data-name="Group 27946" clip-path="url(#clip-path-5)">
                  <path id="Path_12747" data-name="Path 12747" d="M115.107,167.74l33.032,25.277c10.971-.232,34.981,3.568,43.4-5.812,12.259-13.652,4.4-33.392,4.4-33.392H164.782s-2.47,10.844-7.727,11.485c-12.237,1.484-30.1-.345-41.948,2.442" fill="#060706"/>
                </g>
              </g>
            </g>
          </g>
        </g>
        <path id="Path_12748" data-name="Path 12748" d="M137.871,190.527c2.529-1.258,21.7-.636,35.459-1.924,4.483-.42,8.978-1.375,12.4-4.313a20.5,20.5,0,0,0,6.124-10.085c1.322-4.7,1.186-9.6.96-14.418-.055-1.185-.137-2.369-.213-3.553,0-.068.118-.081.126-.013,1.046,8.624,1.847,18.258-3.763,25.733a18.014,18.014,0,0,1-10.029,6.578c-8.3,2.184-39.491,1.642-40.592,2.484-1.311,1,18.856,62.4,19.256,63.57.075.22-.31.369-.4.15-1.99-4.712-21.528-63.116-19.327-64.21" fill="#1c262a"/>
        <path id="Path_12749" data-name="Path 12749" d="M102.761,176.473c1.855-4.708,6.085-7.639,12.309-8.761.1-.018.1.135,0,.164-5.43,1.588-9.313,3.772-11.448,8.355-1,2.139-1.514,5.147-1.772,9.177-1.29,20.1,16.252,65.736,16.609,66.53a.061.061,0,0,1-.107.059c-2.472-4.162-23.244-56.092-15.587-75.525" fill="#1c262a"/>
        <path id="Path_12750" data-name="Path 12750" d="M85.793,244.23l32.532,7.543s-23.5-70.134-12.462-79.182c3.059-2.508,9.729-3.385,17.656.039,11.834,5.11,25.533,15.533,38.447,19.345,12.1,3.57,30.95-4.9,31.393-5.152.341-.376,2.572-33.019,2.572-33.019L153.1,152.2s.639.52-1.4,2.333l-36.119.975C95.843,167.56,85.8,244.231,85.8,244.231" fill="#344952"/>
        <path id="Path_12751" data-name="Path 12751" d="M182.515,71.685c8.271,3.721,10.061,15.384,9.514,31.98l-31.747-.876c-1.668-1.257.7-21.557,4.794-27.4,5.083-7.255,12.316-6,17.438-3.7" fill="#1c262a"/>
        <path id="Path_12752" data-name="Path 12752" d="M182.742,71.853c4.33,2.2,7.11,6.577,8.36,11.174a69.574,69.574,0,0,1,1.715,10.381,40.726,40.726,0,0,1,.158,10.02.092.092,0,0,1-.183-.014,86.116,86.116,0,0,0-1.948-18.7c-1.077-5.154-3.724-9.762-8.268-12.541-.172-.1-.019-.413.165-.319" fill="#1c262a"/>
        <path id="Path_12753" data-name="Path 12753" d="M161.93,81.085a15.18,15.18,0,0,1,10.018-10.752c.031-.011.05.045.018.057-5.519,2.174-8.63,6.539-10.042,12.323a121.213,121.213,0,0,0-2.686,19.122.108.108,0,0,1-.216,0v-.012a80.688,80.688,0,0,1,2.9-20.734" fill="#1c262a"/>
        <path id="Path_12754" data-name="Path 12754" d="M164.477,104.989c-7.367,1.636-32.377,10.215-34.683,12.438-2.746,2.649-.806,17.557,2.3,18.123,8.249,1.506,30.9-15.34,39.715-24.307,4.306-4.382,5.009-8.993-7.329-6.254" fill="#e3aacd"/>
        <g id="Group_27955" data-name="Group 27955" opacity="0.1">
          <g id="Group_27954" data-name="Group 27954">
            <g id="Group_27953" data-name="Group 27953" clip-path="url(#clip-path-6)">
              <g id="Group_27952" data-name="Group 27952">
                <g id="Group_27951" data-name="Group 27951" clip-path="url(#clip-path-7)">
                  <path id="Path_12755" data-name="Path 12755" d="M161.118,120.676a124.692,124.692,0,0,0,10.684-9.433c4.308-4.384,5.011-9-7.328-6.251-.022,0-.051.014-.072.016Z" fill="#060706"/>
                </g>
              </g>
            </g>
          </g>
        </g>
        <path id="Path_12756" data-name="Path 12756" d="M152.052,155.147l4.226-18.459s-4.1-4.091-2.087-8.649c1.4-3.177,9.212-18.379,14.634-22.211,5.088-3.6,10.614-2.17,12.922,1.042,4.509,6.275,5.388,17.966,8.077,30.437a41.543,41.543,0,0,1,8.154,18.419Z" fill="#ffba11"/>
        <path id="Path_12757" data-name="Path 12757" d="M164.074,134.413a46.865,46.865,0,0,1,6.83,1.274c1.11.31,2.2.669,3.286,1.053.542.191,1.086.364,1.634.534a7.4,7.4,0,0,0,1.759.371.041.041,0,0,1,0,.083,12.53,12.53,0,0,1-1.7-.068,12.348,12.348,0,0,1-1.614-.34c-1.13-.3-2.243-.66-3.37-.975-2.271-.636-4.542-1.27-6.855-1.742-.107-.021-.076-.2.033-.189" fill="#1c262a"/>
        <path id="Path_12758" data-name="Path 12758" d="M158.325,136.336a50.764,50.764,0,0,1,5.732-.153c.957.032,1.9.119,2.855.232.454.053.907.116,1.359.183.5.075.986.215,1.484.282.052.007.051.088,0,.083-.471-.049-.953-.02-1.427-.041s-.952-.047-1.428-.069c-.954-.043-1.906-.077-2.859-.129-1.908-.1-3.808-.191-5.718-.23-.1,0-.092-.149.006-.157" fill="#1c262a"/>
        <path id="Path_12759" data-name="Path 12759" d="M178.277,105.006c-.252.849-6.772,7.285-10.426,5.611-1.354-.621.971-6.113.971-6.113l-1.281-7.875,10.12-5.623s.721,13.633.619,13.994" fill="#e3aacd"/>
        <path id="Path_12760" data-name="Path 12760" d="M177.91,96.106l-9.276,7.216-1.091-6.689,10.118-5.618s.113,2.3.249,5.092" fill="#1c262a"/>
        <path id="Path_12761" data-name="Path 12761" d="M160.556,81.585l1.509,18.553s15.845-4.031,19.308-8.092c8.48-9.944,2.564-17.583-2.671-20.214s-12.887-2.211-18.143,9.754" fill="#e3aacd"/>
        <path id="Path_12762" data-name="Path 12762" d="M179.853,94.54a5.492,5.492,0,0,1-1.027-5.33,14.332,14.332,0,0,1-3.47-6.648c-.028.288-.232,2.363-.3,3.424-7.116-4.833-6.923-11.809-6.923-11.809a14.548,14.548,0,0,0-5.524,3.437s2.02-4.778,5.854-6.894a8.365,8.365,0,0,1,8.452-.068,11.951,11.951,0,0,1,9.257,7.964c2.638,7.681-6.317,15.925-6.317,15.925" fill="#1c262a"/>
        <path id="Path_12763" data-name="Path 12763" d="M169.725,82.13a15.609,15.609,0,0,0,3.337,3.2c.01.008.021-.009.011-.016a13.25,13.25,0,0,1-4.185-5.923,12.549,12.549,0,0,1-.651-3.077,8.692,8.692,0,0,1,.261-3.4.065.065,0,0,0-.124-.042,10.135,10.135,0,0,0-.719,3.322,9.281,9.281,0,0,0,.6,3.317,10.655,10.655,0,0,0,1.47,2.618" fill="#1c262a"/>
        <path id="Path_12764" data-name="Path 12764" d="M178.716,91.84s4.161-2.732,5.5-1.1-2.84,6.328-5.159,6.274a2.209,2.209,0,0,1-2.308-2.106c0-.031,0-.063,0-.094Z" fill="#e3aacd"/>
        <path id="Path_12765" data-name="Path 12765" d="M182.986,92.056A.03.03,0,0,1,183,92.1a.031.031,0,0,1-.028.019A5.587,5.587,0,0,0,179,94.29a1.22,1.22,0,0,1,1.713.206,1.3,1.3,0,0,1,.106.16c.027.041-.032.085-.068.061a1.359,1.359,0,0,0-1.565-.114,6.587,6.587,0,0,0-1.114.859c-.117.1-.319-.059-.212-.185.008-.01.017-.018.025-.028.684-1.819,3.094-3.785,5.1-3.193" fill="#1c262a"/>
        <path id="Path_12766" data-name="Path 12766" d="M168.13,74.177l-1.452,2.049,2.47,6.7,2.835,3.951,3.372-4.315Z" fill="#1c262a"/>
        <path id="Path_12767" data-name="Path 12767" d="M180.161,106.107c-2.762.216-5.267,11.249-3.694,18.32,1.41,6.334,6.478,8.79,11.244,8.893,10.087.219-1.195-27.709-7.551-27.213" fill="#d88dbb"/>
        <path id="Path_12768" data-name="Path 12768" d="M186.014,110.888c10.751,16.374,19.375,35.691,16.089,41.6-3.661,6.587-17.325-10.835-17.9-11.825-1.1-1.893-3.1-9.342-5.112-23.132-1.878-12.863,3.627-11.665,6.922-6.648" fill="#e3aacd"/>
        <path id="Path_12769" data-name="Path 12769" d="M201.516,153.159c-3.829,3.812-16.564,5.415-37.967,5.741-2.962.045-1.006-21.031,2.155-21.243,3.98-.266,19.486-.434,20.621-.3,9.577,1.106,17.788,13.219,15.191,15.8" fill="#e3aacd"/>
        <path id="Path_12770" data-name="Path 12770" d="M171.349,138.295a79.4,79.4,0,0,1-8.219-2.107,25.015,25.015,0,0,0-25.645,9.49c.023-.022,2.433,4.465,2.481,4.546,2.91-2.689,4.7-4.8,5.892-5.413,0,0-.923,6,1.6,8.442a64.607,64.607,0,0,0,7.047,5.925,13.714,13.714,0,0,0,1.227-1.22l7.816.942Z" fill="#e3aacd"/>
        <path id="Path_12771" data-name="Path 12771" d="M158.377,135.625c-2.347,1.109-7.28,3.543-10.624,6.937-3.713,3.77-7.079,14.72-7.04,14.747a18.693,18.693,0,0,0,2.73.9l1.952-1.862s.481,5.338.438,5.339l1.9.667,2.042-1.8-.306,2.465,1.83.959s3.859-4.4,7.253-5.886l-.18-22.465" fill="#e3aacd"/>
        <path id="Path_12772" data-name="Path 12772" d="M181.962,133.5a48.435,48.435,0,0,1-2.572-14.47c.624,4.707,1.856,9.777,2.572,14.47" fill="#1c262a"/>
        <path id="Path_12773" data-name="Path 12773" d="M178.335,120.705a16.734,16.734,0,0,0,1.677,3.579,4.429,4.429,0,0,1-1.677-3.579" fill="#1c262a"/>
        <path id="Path_12774" data-name="Path 12774" d="M136.041,99.414c-.929-2.438-21.776-.9-20.907,2.84,3.2,13.753,11.927,30.324,14.85,32.374a7.052,7.052,0,0,0,10.684-3.965c2.043-6.837-1.788-23.8-4.626-31.248" fill="#e3aacd"/>
        <path id="Path_12775" data-name="Path 12775" d="M126.225,113.962c2.369.372,10.965-12.386,9.815-14.563a32.251,32.251,0,0,1-2.816-12.921c.132-4.069-1.392-10.249-1.392-10.249l-2.288.958s-2.826,7.361-3.393,10.709a14.394,14.394,0,0,0-4.9-2.937c-4.2-.944-10.8,17.28-8.069,20.7,2.638,3.3,10.673,7.929,13.042,8.3" fill="#e3aacd"/>
        <path id="Path_12776" data-name="Path 12776" d="M127.432,87.709c.293,2.219-2.49,1.294-2.49,1.294s3.685,2.3,3.1,4.7c-.568,2.316-3.89,1.08-4.129.994.194.124,3.525,2.323,2.69,4.679-.869,2.448-3.991.635-4.193.516.147.174,2.046,2.505,1,4.151-1.79,2.827-6.809-3-9.517-3.087,0,0-.672,4.573-.72,4.7,0,0-4.889-5.446-4.567-9.092a2.337,2.337,0,0,1,2-2.143s-1.771-1.582-1.172-3.458c.31-.962,2.124-1.322,2.124-1.322a2.928,2.928,0,0,1-.728-2.961,2.816,2.816,0,0,1,2.245-1.465s-.72-1.88.228-3.048c1.908-2.359,13.5.787,14.126,5.538" fill="#e3aacd"/>
        <path id="Path_12777" data-name="Path 12777" d="M164.656,74.177l3.223-4.626,11.512-.7,8.94,6.257,1.646,3.622,2.146,5.427-.057,3.453L168.373,72.87Z" fill="#1c262a"/>
        <path id="Path_12778" data-name="Path 12778" d="M192.032,103.666V106.1l-10.285.769,1.259-2.7Z" fill="#1c262a"/>
        <path id="Path_12779" data-name="Path 12779" d="M160.285,102.79v1.376l2.978.413" fill="#1c262a"/>
        <path id="Path_12780" data-name="Path 12780" d="M178.716,91.845l4.211-2.861,1.822.542.454,2.319-2.036,2.481Z" fill="#e3aacd"/>
        <path id="Path_12781" data-name="Path 12781" d="M167.653,106.871l.225,2.729,2.486.494,3.566-1.059-1.209,1.858-6.7,1.53Z" fill="#ffba11"/>
        <path id="Path_12782" data-name="Path 12782" d="M177.134,110.891l-2.119,7.8.918,9.185,5.814,4.73Z" fill="#d88dbb"/>
        <path id="Path_12783" data-name="Path 12783" d="M177.906,108.691l.8-2.591H181.1Z" fill="#d88dbb"/>
        <path id="Path_12784" data-name="Path 12784" d="M178.715,116.02l.461-5.129,1.5-2.857h3.017l-1.946-1.164-2.357.617-1.484,4.934Z" fill="#e3aacd"/>
        <path id="Path_12785" data-name="Path 12785" d="M123.56,124.653l6.238,13.075,13.1-5.124Z" fill="#e3aacd"/>
        <path id="Path_12786" data-name="Path 12786" d="M200.775,139.48l4.016,13.008-8.245,3.268Z" fill="#e3aacd"/>
        <path id="Path_12787" data-name="Path 12787" d="M155.626,124.653l-4.07,5.526.877,4.775,2.989.691" fill="#ffba11"/>
        <path id="Path_12788" data-name="Path 12788" d="M149.691,186.817l3.933,6.3,37.177-.322s7.962-13.711,8.15-13.386,1.723-13.666,1.723-13.666l-4.122-9.986-.894,7.166-.247,12.452-4.939,9.138-8.974,6.009Z" fill="#344952"/>
        <path id="Path_12789" data-name="Path 12789" d="M106.833,165.7l5.841-9.324,3.952-2.4,9.46,1.245-6.332,2.865Z" fill="#344952"/>
        <path id="Path_12790" data-name="Path 12790" d="M109.07,99.21l-1.912-3.169,1.784-2.03,1.666.412-1.724-1.181.416-3.792,2.21.155-2.045-1.028,1.509-3.787,2.1.427-1.8-1,.6-3.1,4.007.254" fill="#e3aacd"/>
        <path id="Path_12791" data-name="Path 12791" d="M126.02,85.2l2.187,2.342-.8,2.056L124.939,89l3.565,2.813-.658,3.754-3.934-.87,3.6,2.688-1.309,4.033L122.4,99.9l2.144,3.013-1.811,2.548-4.016-2.031,3.574,1.374,1.424-1.892-1.8-3.544,3.519,1.2L126.8,97.3l-3.842-2.936,4.211.488.931-2.985-3.99-3.211,2.814.36.726-1.83Z" fill="#1c262a"/>
        <path id="Path_12792" data-name="Path 12792" d="M111.027,94.564l6.888,3.128.813,1.345Z" fill="#1c262a"/>
        <path id="Path_12793" data-name="Path 12793" d="M111.851,89.591l7.08,2.773-2.579-.631Z" fill="#1c262a"/>
        <path id="Path_12794" data-name="Path 12794" d="M113.077,85.219l6.978,2.1h-1.7Z" fill="#1c262a"/>
        <path id="Path_12795" data-name="Path 12795" d="M116.945,108.691h3.111l4.855-1.341Z" fill="#1c262a"/>
        <path id="Path_12796" data-name="Path 12796" d="M193.477,159.613V178.84l-5.043,9.7-23.918,1.214S139.7,176.11,131.252,171.562" fill="none" stroke="#1b262a" stroke-linecap="square" stroke-width="0.75"/>
        <path id="Path_12797" data-name="Path 12797" d="M180.676,159.613l.746,5.535,5.053,3.779" fill="none" stroke="#1b262a" stroke-width="0.75"/>
        <path id="Path_12798" data-name="Path 12798" d="M145.45,156a11.056,11.056,0,0,1,.361-1.144l.67-.922,1.334-1.846,1.334-1.846.668-.923c.324-.234.625-.485.971-.7-.1.4-.244.761-.364,1.143l-.667.923-1.334,1.846-1.335,1.847-.665.924a10.883,10.883,0,0,1-.973.7h0" fill="#1c262a"/>
        <path id="Path_12799" data-name="Path 12799" d="M149.864,160.429a11.056,11.056,0,0,1,.361-1.144l.67-.922,1.334-1.846,1.334-1.846.668-.923c.324-.234.625-.485.971-.7-.1.4-.244.761-.364,1.143l-.667.923-1.334,1.846L151.5,158.8l-.665.924a10.883,10.883,0,0,1-.973.7h0" fill="#1c262a"/>
        <path id="Path_12800" data-name="Path 12800" d="M119.666,172.919l-11.862-.067.407-.284-4.247,11.374c-.054-1,12.742,63.042,12.744,62.823.014-.2-13.557-62.9-13.427-63.073L107.4,172.27l.1-.282.3,0,11.862-.067Z" fill="#1c262a"/>
        <path id="Path_12801" data-name="Path 12801" d="M91.751,240.485c.947.11,1.877.28,2.814.422l2.708.788,5.418,1.57,5.419,1.57,2.709.785c.867.383,1.744.737,2.6,1.145-.945-.116-1.875-.285-2.813-.425l-2.709-.785-5.418-1.57-5.418-1.57-2.71-.782c-.869-.381-1.745-.735-2.6-1.148h0" fill="#1b262a"/>
        <path id="Path_12802" data-name="Path 12802" d="M127.678,266.056c1.178-.455,2.371-.84,3.557-1.257l3.655-.825,7.308-1.658,7.308-1.657,3.654-.828c1.25-.133,2.493-.3,3.75-.4-1.179.449-2.372.835-3.558,1.254l-3.654.829-7.308,1.657-7.308,1.657-3.653.832c-1.25.136-2.493.3-3.751.4h0" fill="#1b262a"/>
        <path id="Path_12803" data-name="Path 12803" d="M140.236,115.577l-3.2-11.708,4.156,11.405Z" fill="#1c262a"/>
      </g>
    </g>
    <path id="Path_12804" data-name="Path 12804" d="M143.132,190.288l-5.261.239,1.162,5.712" fill="none" stroke="#1c262a" stroke-width="0.75"/>
    <path id="Path_12805" data-name="Path 12805" d="M183.186,136.866l10.544,6.014-11-5.126Z" fill="#1c262a"/>
  </g>
</svg>
