<svg id="Group_28149" data-name="Group 28149" xmlns="http://www.w3.org/2000/svg" xmlns:xlink="http://www.w3.org/1999/xlink" width="308.48" height="293.67" viewBox="0 0 308.48 293.67">
  <defs>
    <clipPath id="clip-path">
      <rect id="Rectangle_9081" data-name="Rectangle 9081" width="308.481" height="293.67" fill="none"/>
    </clipPath>
    <clipPath id="clip-path-2">
      <rect id="Rectangle_9076" data-name="Rectangle 9076" width="308.481" height="293.667" fill="none"/>
    </clipPath>
    <clipPath id="clip-path-3">
      <rect id="Rectangle_9001" data-name="Rectangle 9001" width="142.013" height="92.389" fill="none"/>
    </clipPath>
    <clipPath id="clip-path-5">
      <rect id="Rectangle_9003" data-name="Rectangle 9003" width="52.222" height="41.342" fill="none"/>
    </clipPath>
    <clipPath id="clip-path-6">
      <rect id="Rectangle_9002" data-name="Rectangle 9002" width="52.222" height="41.341" fill="none"/>
    </clipPath>
    <clipPath id="clip-path-7">
      <rect id="Rectangle_9005" data-name="Rectangle 9005" width="36.752" height="41.929" fill="none"/>
    </clipPath>
    <clipPath id="clip-path-8">
      <rect id="Rectangle_9004" data-name="Rectangle 9004" width="36.723" height="41.929" fill="none"/>
    </clipPath>
    <clipPath id="clip-path-9">
      <rect id="Rectangle_9007" data-name="Rectangle 9007" width="6.961" height="34.434" fill="none"/>
    </clipPath>
    <clipPath id="clip-path-11">
      <rect id="Rectangle_9009" data-name="Rectangle 9009" width="10.061" height="42.997" fill="none"/>
    </clipPath>
    <clipPath id="clip-path-12">
      <rect id="Rectangle_9008" data-name="Rectangle 9008" width="10.036" height="42.997" fill="none"/>
    </clipPath>
    <clipPath id="clip-path-13">
      <rect id="Rectangle_9011" data-name="Rectangle 9011" width="6.964" height="34.434" fill="none"/>
    </clipPath>
    <clipPath id="clip-path-15">
      <rect id="Rectangle_9013" data-name="Rectangle 9013" width="102.266" height="13.845" fill="none"/>
    </clipPath>
    <clipPath id="clip-path-16">
      <rect id="Rectangle_9012" data-name="Rectangle 9012" width="102.263" height="13.844" fill="none"/>
    </clipPath>
    <clipPath id="clip-path-17">
      <rect id="Rectangle_9015" data-name="Rectangle 9015" width="32.4" height="44.839" fill="none"/>
    </clipPath>
    <clipPath id="clip-path-18">
      <rect id="Rectangle_9014" data-name="Rectangle 9014" width="32.399" height="44.839" fill="none"/>
    </clipPath>
    <clipPath id="clip-path-19">
      <rect id="Rectangle_9017" data-name="Rectangle 9017" width="6.1" height="4.828" fill="none"/>
    </clipPath>
    <clipPath id="clip-path-20">
      <rect id="Rectangle_9016" data-name="Rectangle 9016" width="6.096" height="4.828" fill="none"/>
    </clipPath>
    <clipPath id="clip-path-21">
      <rect id="Rectangle_9019" data-name="Rectangle 9019" width="6.096" height="1.485" fill="none"/>
    </clipPath>
    <clipPath id="clip-path-23">
      <rect id="Rectangle_9021" data-name="Rectangle 9021" width="6.084" height="4.878" fill="none"/>
    </clipPath>
    <clipPath id="clip-path-24">
      <rect id="Rectangle_9020" data-name="Rectangle 9020" width="6.083" height="4.828" fill="none"/>
    </clipPath>
    <clipPath id="clip-path-25">
      <rect id="Rectangle_9025" data-name="Rectangle 9025" width="6.706" height="0.681" fill="none"/>
    </clipPath>
    <clipPath id="clip-path-27">
      <rect id="Rectangle_9027" data-name="Rectangle 9027" width="0.897" height="1.16" fill="none"/>
    </clipPath>
    <clipPath id="clip-path-28">
      <rect id="Rectangle_9026" data-name="Rectangle 9026" width="0.894" height="1.148" fill="none"/>
    </clipPath>
    <clipPath id="clip-path-29">
      <rect id="Rectangle_9029" data-name="Rectangle 9029" width="0.278" height="0.071" fill="none"/>
    </clipPath>
    <clipPath id="clip-path-31">
      <rect id="Rectangle_9031" data-name="Rectangle 9031" width="0.314" height="0.507" fill="none"/>
    </clipPath>
    <clipPath id="clip-path-32">
      <rect id="Rectangle_9030" data-name="Rectangle 9030" width="0.313" height="0.507" fill="none"/>
    </clipPath>
    <clipPath id="clip-path-35">
      <rect id="Rectangle_9035" data-name="Rectangle 9035" width="0.279" height="0.074" fill="none"/>
    </clipPath>
    <clipPath id="clip-path-39">
      <rect id="Rectangle_9039" data-name="Rectangle 9039" width="0.895" height="1.16" fill="none"/>
    </clipPath>
    <clipPath id="clip-path-47">
      <rect id="Rectangle_9047" data-name="Rectangle 9047" width="0.278" height="0.074" fill="none"/>
    </clipPath>
    <clipPath id="clip-path-57">
      <rect id="Rectangle_9057" data-name="Rectangle 9057" width="7.597" height="20.498" fill="none"/>
    </clipPath>
    <clipPath id="clip-path-58">
      <rect id="Rectangle_9056" data-name="Rectangle 9056" width="7.596" height="20.498" fill="none"/>
    </clipPath>
    <clipPath id="clip-path-61">
      <rect id="Rectangle_9061" data-name="Rectangle 9061" width="6.6" height="23.104" fill="none"/>
    </clipPath>
    <clipPath id="clip-path-62">
      <rect id="Rectangle_9060" data-name="Rectangle 9060" width="6.599" height="23.103" fill="none"/>
    </clipPath>
    <clipPath id="clip-path-63">
      <rect id="Rectangle_9063" data-name="Rectangle 9063" width="1.048" height="3.294" fill="none"/>
    </clipPath>
    <clipPath id="clip-path-64">
      <rect id="Rectangle_9062" data-name="Rectangle 9062" width="1.047" height="3.294" fill="none"/>
    </clipPath>
    <clipPath id="clip-path-65">
      <rect id="Rectangle_9065" data-name="Rectangle 9065" width="7.044" height="22.065" fill="none"/>
    </clipPath>
    <clipPath id="clip-path-69">
      <rect id="Rectangle_9069" data-name="Rectangle 9069" width="3.467" height="23.237" fill="none"/>
    </clipPath>
    <clipPath id="clip-path-71">
      <rect id="Rectangle_9071" data-name="Rectangle 9071" width="22.964" height="2.397" fill="none"/>
    </clipPath>
    <clipPath id="clip-path-73">
      <rect id="Rectangle_9073" data-name="Rectangle 9073" width="8.135" height="1.436" fill="none"/>
    </clipPath>
    <clipPath id="clip-path-74">
      <rect id="Rectangle_9072" data-name="Rectangle 9072" width="8.127" height="1.436" fill="none"/>
    </clipPath>
    <clipPath id="clip-path-75">
      <rect id="Rectangle_9075" data-name="Rectangle 9075" width="10.059" height="42.997" fill="none"/>
    </clipPath>
    <clipPath id="clip-path-76">
      <rect id="Rectangle_9074" data-name="Rectangle 9074" width="10.035" height="42.996" fill="none"/>
    </clipPath>
  </defs>
  <g id="Group_28148" data-name="Group 28148" clip-path="url(#clip-path)">
    <g id="Group_28147" data-name="Group 28147" transform="translate(0 0)">
      <g id="Group_28146" data-name="Group 28146" clip-path="url(#clip-path-2)">
        <path id="Path_12806" data-name="Path 12806" d="M84.641,118.552c33.006,15.275,88.49,41.706,99.663,22.865,7.309-12.321,19.157-54.622,21.471-74.506,1.256-10.786-52.543-18.9-54.28-9.229-3.426,19.073-3.819,33.783-5.226,42.6-.292,1.827-40.184-3.8-59.274-2.735-24.79,1.382-16.926,14.266-2.355,21.009" transform="translate(10.086 7.582)" fill="#e3aacd"/>
        <path id="Path_12807" data-name="Path 12807" d="M202.532,98.531h0c4-13.783,6.8-25.02,6.8-25.02l-62.557-10.79S144.237,96.8,143.849,97.4,114.5,92.614,85.741,94.317c-11.017.65-16.542,2.75-18.012,5.779-2.446,5.025,6.27,12.61,19.644,20.379,12.637,7.344,37.232,19.483,58.918,25.97h.014c4.289,1.283,8.463,2.345,12.408,3.1l18.12,4.533,4.112,1.028,8.9-14.332L198.91,110.6c1.278-4.093,2.5-8.178,3.623-12.062Z" transform="translate(9.565 8.912)" fill="#ffba11"/>
        <g id="Group_27964" data-name="Group 27964" transform="translate(76.882 71.632)" opacity="0.2">
          <g id="Group_27963" data-name="Group 27963">
            <g id="Group_27962" data-name="Group 27962" clip-path="url(#clip-path-3)">
              <g id="Group_27961" data-name="Group 27961">
                <g id="Group_27960" data-name="Group 27960" clip-path="url(#clip-path-3)">
                  <path id="Path_12808" data-name="Path 12808" d="M202.532,98.53h0c4-13.783,6.8-25.02,6.8-25.02L146.773,62.72s-2.535,34.074-2.924,34.679S114.5,92.613,85.741,94.316c-11.017.65-16.542,2.75-18.012,5.779C65.283,105.12,74,112.7,87.373,120.474c12.637,7.344,37.232,19.483,58.918,25.97h.014c4.289,1.283,8.463,2.345,12.408,3.1l18.12,4.533,4.112,1.028,8.9-14.332L198.91,110.6c1.278-4.093,2.5-8.178,3.623-12.062Z" transform="translate(-67.317 -62.72)" fill="#040504"/>
                </g>
              </g>
            </g>
          </g>
        </g>
        <path id="Path_12809" data-name="Path 12809" d="M124.547,212.055v.031c-.039.443-.343,5.275-1.124,12.654-.222,2.156-.482,4.518-.788,7.05-.474,4-1.07,8.41-1.8,13.075-.914,5.957-2.026,12.3-3.387,18.672H6.765s-1.4-3.272-1.142-5.233c2.389-18.324,8.458-46.218,8.458-46.218l94.928-.031Z" transform="translate(0.795 30.13)" fill="#1c262a"/>
        <path id="Path_12810" data-name="Path 12810" d="M133.768,210.808c-10.378-40.3-28.612-111.729-42.786-120.939-9.121-5.926-24.489-1-31.446,4.454-11.408,8.937-33.44,58.827-44.973,95.26L0,228.317l7.281,7.188,21.814-1.851,99-3.4c.074-.114,8.656-7.888,5.68-19.443" transform="translate(0 12.386)" fill="#ffba11"/>
        <path id="Path_12811" data-name="Path 12811" d="M134.172,92.486a65.641,65.641,0,0,0,2.033,12.086c.468,1.935,1.07,3.8,1.682,5.661a27.268,27.268,0,0,0,2.254,5.286c.035.061.17-.03.16-.1a47.958,47.958,0,0,0-1.308-5.839c-.514-1.91-.972-3.848-1.492-5.755-1.04-3.813-1.874-7.736-3.071-11.469-.039-.114-.266,0-.259.128" transform="translate(19.064 13.116)" fill="#1c262a"/>
        <path id="Path_12812" data-name="Path 12812" d="M190.177,87.5c-7.019-.853-11.015-1.606-17.946-2.838s-13.875-2.453-20.764-3.855c-3.892-.791-7.792-1.561-11.649-2.485a.094.094,0,0,1,.039-.182c7.008.849,13.959,2.036,20.889,3.222s13.882,2.45,20.793,3.769c3.906.748,4.853,1.1,8.7,2.025a.176.176,0,0,1-.072.343" transform="translate(19.857 11.102)" fill="#1c262a"/>
        <g id="Group_27969" data-name="Group 27969" transform="translate(76.882 104.06)" opacity="0.1">
          <g id="Group_27968" data-name="Group 27968">
            <g id="Group_27967" data-name="Group 27967" clip-path="url(#clip-path-5)">
              <g id="Group_27966" data-name="Group 27966" transform="translate(0 0.001)">
                <g id="Group_27965" data-name="Group 27965" clip-path="url(#clip-path-6)">
                  <path id="Path_12813" data-name="Path 12813" d="M119.538,132.456a325.244,325.244,0,0,1-32.165-16.022C74,108.668,65.281,101.08,67.729,96.055c1.074-2.211,4.3-3.924,10.25-4.941Z" transform="translate(-67.317 -91.115)" fill="#040504"/>
                </g>
              </g>
            </g>
          </g>
        </g>
        <path id="Path_12814" data-name="Path 12814" d="M136.912,263.533H54.142c-.031-.13-.069-.26-.1-.391-.161-.634-.329-1.256-.481-1.889-.55-2.17-1.086-4.3-1.614-6.355q-.481-1.881-.94-3.715c-.329-1.247-.635-2.47-.94-3.663v-.008c-.085-.314-.161-.627-.244-.933-.085-.343-.168-.685-.252-1.018-.107-.428-.215-.826-.314-1.238v-.008c-.122-.436-.222-.857-.329-1.277-.214-.8-.413-1.6-.6-2.37-.3-1.142-.58-2.256-.857-3.342-.114-.474-.244-.948-.359-1.415-.2-.765-.391-1.5-.571-2.225-.13-.49-.244-.964-.36-1.43-.5-1.912-.948-3.7-1.371-5.383-.114-.443-.222-.871-.336-1.3-.176-.726-.36-1.422-.528-2.1-.114-.42-.222-.833-.313-1.238-.375-1.43-.71-2.741-.994-3.892-.083-.306-.161-.6-.228-.887-.191-.757-.375-1.437-.52-2.034-.062-.244-.114-.482-.176-.685-.069-.244-.122-.466-.176-.666-.031-.145-.069-.3-.1-.42-.054-.214-.106-.405-.153-.571a1.892,1.892,0,0,0-.062-.252c-.13-.5.666,2.6.666,2.6l80.217-3.349s2.668,9.206,6.943,24.039c.865,3.021,1.8,6.281,2.806,9.75,1.56,5.428,3.265,11.355,5.062,17.662" transform="translate(5.855 30.134)" fill="#1c262a"/>
        <path id="Path_12815" data-name="Path 12815" d="M93.744,218.5c-.054.528-.106,1.07-.169,1.6q-.457,4.541-1.085,9.053c-.5,3.532-.857,7.1-1.353,10.629-.168,1.2-.336,2.409-.513,3.609-.818,5.819-1.659,11.63-2.653,17.426-.091.542-.238,1.169-.375,1.835H85.217c.3-1.95.588-3.907.887-5.857.612-3.938,1.4-7.83,2.095-11.745.107-.588.214-1.192.321-1.782,1.4-7.975,2.868-15.944,4.633-23.834.062-.329.137-.658.206-.986a.2.2,0,0,1,.383.054" transform="translate(12.108 31.019)" fill="#29383e"/>
        <path id="Path_12816" data-name="Path 12816" d="M102.233,220.5c-.114,3.747-.275,7.485-.52,11.21-.252,4.044-.62,8.075-1.142,12.106-.008.145-.031.29-.054.443-.5,3.777-1.055,7.547-1.7,11.3-.383,2.226-.7,4.568-1.285,6.806h-2.5c.734-2.627,1.078-5.4,1.552-8.052q.952-5.321,1.689-10.651v-.007c.635-4.443,1.285-8.877,1.98-13.312.352-2.256.712-4.519,1.071-6.775.168-1.047.336-2.087.5-3.135.046-.222.391-.161.391.062" transform="translate(13.503 31.3)" fill="#29383e"/>
        <path id="Path_12817" data-name="Path 12817" d="M28.5,248.377A52.715,52.715,0,0,0,41.4,246.64c1.942-.5,3.867-1.123,5.776-1.749a15.006,15.006,0,0,0,5.208-2.614c2.935-2.531,4.3-6.518,5.577-10.05a96.169,96.169,0,0,0,3.384-12.212c.045-.2.343-.136.349.057a47.374,47.374,0,0,1-1.758,13.863c-1.051,3.826-2.469,8.1-5.56,10.778-3.253,2.821-7.669,3.812-11.832,4.326a54.405,54.405,0,0,1-14.066-.2.232.232,0,1,1,.011-.464" transform="translate(4.014 31.243)" fill="#29383e"/>
        <path id="Path_12818" data-name="Path 12818" d="M91.491,25.641s5.97,3.7,7.564,8.353,1.256,16.933,1.256,16.933Z" transform="translate(12.999 3.643)" fill="#1c262a"/>
        <path id="Path_12819" data-name="Path 12819" d="M58.589,87.536c-4.926,3.169-2.083,8.377,1.311,13.9,10.386,16.889,27.58,33.537,28.408,33.525s4.218-27.287,3.519-34.778S89.289,90.88,80.391,87.4c-7.659-2.992-17.462-2.659-21.8.134" transform="translate(7.949 12.119)" fill="#e6e6e6"/>
        <g id="Group_27974" data-name="Group 27974" transform="translate(65.236 113.424)" opacity="0.1">
          <g id="Group_27973" data-name="Group 27973">
            <g id="Group_27972" data-name="Group 27972" clip-path="url(#clip-path-7)">
              <g id="Group_27971" data-name="Group 27971">
                <g id="Group_27970" data-name="Group 27970" clip-path="url(#clip-path-8)">
                  <path id="Path_12820" data-name="Path 12820" d="M57.12,101a125.908,125.908,0,0,0,13.31,19.461c6.156,7.261,12.687,14.422,20.427,20,.042.025.095.045.089.043a.318.318,0,0,0-.183.035,19.969,19.969,0,0,0,.739-3.016,144.239,144.239,0,0,0,1.125-38.219,117.036,117.036,0,0,1,1.059,23.609c-.363,5.922-.661,11.907-2.17,17.675-.089.274-.331.751-.742.625a25.862,25.862,0,0,1-4.423-3.288A125.2,125.2,0,0,1,57.121,101" transform="translate(-57.12 -99.313)" fill="#040504"/>
                </g>
              </g>
            </g>
          </g>
        </g>
        <path id="Path_12821" data-name="Path 12821" d="M81.5,116.1c-7.6,1.163-19.484-11.266-23.8-20.909-.292-.662,1.216-7.259,2.67-15.361.863-4.92,1.707-10.419,2.116-15.492l31.2,10.292S89.7,85.008,89.043,93.858a11.51,11.51,0,0,0,.051,2.1c0,.1.022.215.018.349.327,4.006-.268,18.661-7.613,19.789" transform="translate(8.193 9.141)" fill="#e3aacd"/>
        <path id="Path_12822" data-name="Path 12822" d="M88.627,93.855a12.149,12.149,0,0,0,0,1.5S63.535,82.8,60.6,76c.457-3.041,1.232-8.72,1.471-11.676l31.2,10.3S89.28,85.008,88.625,93.853" transform="translate(8.61 9.14)" fill="#1c262a"/>
        <path id="Path_12823" data-name="Path 12823" d="M89.781,92.465l-7.623,16.446L59.325,87.178l-6.6,6.576s22.2,34.122,22.359,32.613l7.794-14.138,10.932,10.3-.635-25.1Z" transform="translate(7.491 12.387)" fill="#e6e6e6"/>
        <path id="Path_12824" data-name="Path 12824" d="M94.161,109.112c-.259-4.145-.393-8.321-.865-12.454-.016-.146-.271-.219-.313-.048-.965,3.968.122,19.813.063,23.6L93,120.168c-.457-.445-10.137-9.08-10.235-8.949-1.682,2.232-7.4,12.526-7.794,13.467-3.511-5.42-16.978-25.142-21.146-30.29-.114-.147-.37-.037-.278.136,3.092,5.71,20.908,32.255,21.187,32.19a151.429,151.429,0,0,0,8.152-14.951c1.634,1.868,11.4,11.578,11.437,10.964a116.8,116.8,0,0,0-.158-13.62" transform="translate(7.605 13.402)" fill="#1c262a"/>
        <path id="Path_12825" data-name="Path 12825" d="M51.666,38.611c-1.615,9.423,4.6,31.823,11.755,43.523-1.119-1.931,5.34,6.332,5.34,6.332,13.008,9.058,32.232,7.627,39.42-7.521,6.967-14.684-6.975-55.983-16.8-61.444C76.9,11.452,54.638,21.274,51.666,38.611" transform="translate(7.304 2.366)" fill="#e3aacd"/>
        <path id="Path_12826" data-name="Path 12826" d="M90.575,47.5c0-.088.2.058.219.147.507,2.2,1.457,4.631,3.62,4.834.069.007.091.114.015.127-2.5.3-3.727-2.945-3.855-5.11" transform="translate(12.869 6.745)" fill="#1c262a"/>
        <path id="Path_12827" data-name="Path 12827" d="M91.922,45.066c3.437-1.192,5.57,5.769,2.386,6.873-3.133,1.088-5.266-5.874-2.386-6.873" transform="translate(12.868 6.384)" fill="#1c262a"/>
        <path id="Path_12828" data-name="Path 12828" d="M79.625,50.911c-.042-.077-.136.155-.105.242.748,2.129,1.246,4.693-.474,6.022-.054.042-.014.147.056.114,2.269-1.085,1.573-4.483.523-6.379" transform="translate(11.228 7.231)" fill="#1c262a"/>
        <path id="Path_12829" data-name="Path 12829" d="M63.178,60.622s-8.84-9.511-13.263-6.223,3.245,17.8,9.155,19.1a5.772,5.772,0,0,0,7.17-3.9c.023-.075.043-.152.063-.228Z" transform="translate(6.905 7.631)" fill="#e3aacd"/>
        <path id="Path_12830" data-name="Path 12830" d="M209.435,21.427l-78.387,21.96s-9.4,9.084.228,20.034l78.159,14.016Z" transform="translate(18.036 3.044)" fill="#ffba11"/>
        <g id="Group_27979" data-name="Group 27979" transform="translate(181.429 37.641)" opacity="0.1">
          <g id="Group_27978" data-name="Group 27978">
            <g id="Group_27977" data-name="Group 27977" clip-path="url(#clip-path-9)">
              <g id="Group_27976" data-name="Group 27976">
                <g id="Group_27975" data-name="Group 27975" clip-path="url(#clip-path-9)">
                  <path id="Path_12831" data-name="Path 12831" d="M165.819,32.958a32.237,32.237,0,0,0-4.108,17.183A67.077,67.077,0,0,0,164.2,67.386l-3.113-.466s-2.775-9.452-2.135-17.437c.839-10.472,5.852-16.3,5.852-16.3Z" transform="translate(-158.858 -32.958)" fill="#040504"/>
                </g>
              </g>
            </g>
          </g>
        </g>
        <path id="Path_12832" data-name="Path 12832" d="M184.319,29.318A28.042,28.042,0,0,0,175.7,49.455a37.713,37.713,0,0,0,6.093,21.3l-1.082.844-16.1-2.048a39.925,39.925,0,0,1-4.226-18.822,32.728,32.728,0,0,1,6.178-18.7l17.259-3.426Z" transform="translate(22.787 4.065)" fill="#ffba11"/>
        <g id="Group_27984" data-name="Group 27984" transform="translate(197.05 32.672)" opacity="0.5">
          <g id="Group_27983" data-name="Group 27983">
            <g id="Group_27982" data-name="Group 27982" clip-path="url(#clip-path-11)">
              <g id="Group_27981" data-name="Group 27981" transform="translate(0.025)">
                <g id="Group_27980" data-name="Group 27980" clip-path="url(#clip-path-12)">
                  <path id="Path_12833" data-name="Path 12833" d="M173.974,49.454a37.7,37.7,0,0,0,6.088,21.307l-1.082.843s-5.9-7-6.4-21.5a25.731,25.731,0,0,1,9.519-21.5l.5.713a28.017,28.017,0,0,0-8.62,20.134" transform="translate(-172.56 -28.607)" fill="#fff"/>
                </g>
              </g>
            </g>
          </g>
        </g>
        <path id="Path_12834" data-name="Path 12834" d="M180.986,13.288a6.475,6.475,0,0,0-6.8,3.945s-3.071-5.562-8.337-5.11c-2.707.228-4.712,4.761-4.712,4.761s-2.656-4.35-7.309-3.655c-3.707.55-5.162,5.006-5.162,5.006s-4.493-2.985-8.089-1.213c-7.293,3.594-5.945,35.736,6.1,40.2,5.616,2.083,4.86-5.75,4.86-5.75s3.808,11,10.441,10.892,5.037-10.226,5.037-10.226,3.783,10.628,10.649,9.822c7.148-.841,3.818-10.686,3.818-10.686s5.139,6.944,10.26,5.122c8.451-3.007-3.094-17.831-1.713-24.965l9.983-2.328s-10.3-14.976-19.039-15.816" transform="translate(19.339 1.719)" fill="#e3aacd"/>
        <path id="Path_12835" data-name="Path 12835" d="M155.843,24.424l-75.4,19.4s-9.4,9.084.228,20.034l75.171,16.575Z" transform="translate(10.846 3.47)" fill="#ffba11"/>
        <g id="Group_27989" data-name="Group 27989" transform="translate(123.632 38.503)" opacity="0.1">
          <g id="Group_27988" data-name="Group 27988">
            <g id="Group_27987" data-name="Group 27987" clip-path="url(#clip-path-13)">
              <g id="Group_27986" data-name="Group 27986" transform="translate(0.003)">
                <g id="Group_27985" data-name="Group 27985" clip-path="url(#clip-path-9)">
                  <path id="Path_12836" data-name="Path 12836" d="M115.215,33.713A32.231,32.231,0,0,0,111.1,50.9a67.077,67.077,0,0,0,2.491,17.245l-3.113-.466s-2.775-9.452-2.135-17.437c.839-10.472,5.851-16.3,5.851-16.3Z" transform="translate(-108.254 -33.713)" fill="#040504"/>
                </g>
              </g>
            </g>
          </g>
        </g>
        <g id="Group_27994" data-name="Group 27994" transform="translate(87.187 51.413)" opacity="0.2">
          <g id="Group_27993" data-name="Group 27993">
            <g id="Group_27992" data-name="Group 27992" clip-path="url(#clip-path-15)">
              <g id="Group_27991" data-name="Group 27991">
                <g id="Group_27990" data-name="Group 27990" clip-path="url(#clip-path-16)">
                  <path id="Path_12837" data-name="Path 12837" d="M178.605,58.862,77.2,55.345a12.867,12.867,0,0,1-.857-4.316l100.642-6.012Z" transform="translate(-76.34 -45.017)" fill="#fff"/>
                </g>
              </g>
            </g>
          </g>
        </g>
        <path id="Path_12838" data-name="Path 12838" d="M177.439,75.792c-3.821-.018-5.812-7.329-6.935-10.319a77.057,77.057,0,0,1-3.495-25.746c.278-3.735.343-7.795,2.3-11.1a2.032,2.032,0,0,1,1.3-.925c-1.092.281-1.526,1.485-1.859,2.449-2.527,11.576-.6,23.811,2.36,35.14a30.655,30.655,0,0,0,3.713,8.888,3.178,3.178,0,0,0,2.612,1.613" transform="translate(23.723 3.936)" fill="#29383e"/>
        <path id="Path_12839" data-name="Path 12839" d="M197.331,60.834c-4.765,14.689-20.021,22.081-34.075,16.51s-21.585-22-16.817-36.683,20.022-22.081,34.076-16.51,21.585,22,16.816,36.683" transform="translate(20.603 3.168)" fill="#ffba11"/>
        <path id="Path_12840" data-name="Path 12840" d="M194.391,59.443c-4.278,13.189-17.976,19.828-30.6,14.824s-19.381-19.75-15.1-32.939S166.67,21.5,179.29,26.5s19.379,19.749,15.1,32.939" transform="translate(20.944 3.529)" fill="#344952"/>
        <g id="Group_28000" data-name="Group 28000" transform="translate(180.342 31.661)" opacity="0.4">
          <g id="Group_27999" data-name="Group 27999">
            <g id="Group_27998" data-name="Group 27998" clip-path="url(#clip-path-17)">
              <g id="Group_27997" data-name="Group 27997">
                <g id="Group_27996" data-name="Group 27996" clip-path="url(#clip-path-18)">
                  <path id="Path_12841" data-name="Path 12841" d="M175.6,72.557A23.915,23.915,0,0,0,185.59,60.5c4.648-12.118-.656-25.454-11.9-29.818a20.85,20.85,0,0,0-15.781.368,21.037,21.037,0,0,1,18.814-1.942c11.246,4.364,16.551,17.7,11.9,29.818A24.088,24.088,0,0,1,175.6,72.557" transform="translate(-157.906 -27.721)" fill="#fff"/>
                </g>
              </g>
            </g>
          </g>
        </g>
        <path id="Path_12842" data-name="Path 12842" d="M169.131,50.954H149.165s1.979-5.407,5.025-5.407,4,3.732,4,3.732,2.056-2.028,3.744-2.028,3.158,2.679,3.158,2.679a2.947,2.947,0,0,1,4.037,1.028" transform="translate(21.194 6.472)" fill="#fff"/>
        <path id="Path_12843" data-name="Path 12843" d="M188.313,60.179H168.347s1.979-5.41,5.026-5.41,4,3.732,4,3.732,2.056-2.028,3.744-2.028,3.158,2.679,3.158,2.679a2.946,2.946,0,0,1,4.037,1.027h0" transform="translate(23.92 7.782)" fill="#fff"/>
        <path id="Path_12844" data-name="Path 12844" d="M182.784,33.625h-9.331s2.084-3.021,3.728-3.021,2.128,2.013,2.128,2.013a3.425,3.425,0,0,1,2.234-.772c1.074.168,1.241,1.779,1.241,1.779" transform="translate(24.645 4.348)" fill="#fff"/>
        <path id="Path_12845" data-name="Path 12845" d="M167.663,64.693h-9.327s2.084-3.021,3.728-3.021,2.128,2.013,2.128,2.013a3.425,3.425,0,0,1,2.234-.772c1.074.168,1.241,1.779,1.241,1.779" transform="translate(22.497 8.763)" fill="#fff"/>
        <path id="Path_12846" data-name="Path 12846" d="M166.182,58.449l-.433-4.075.159-.008.433,4.075Z" transform="translate(23.55 7.725)" fill="#29383e"/>
        <path id="Path_12847" data-name="Path 12847" d="M170.973,58.449l-.159-.008.433-4.075.159.008Z" transform="translate(24.27 7.725)" fill="#29383e"/>
        <path id="Path_12848" data-name="Path 12848" d="M171.968,57.432l-.131,1.485-.291,3.343h-5.254L166,58.917l-.131-1.485Z" transform="translate(23.567 8.16)" fill="#ffba11"/>
        <g id="Group_28005" data-name="Group 28005" transform="translate(189.436 65.592)" opacity="0.3">
          <g id="Group_28004" data-name="Group 28004">
            <g id="Group_28003" data-name="Group 28003" clip-path="url(#clip-path-19)">
              <g id="Group_28002" data-name="Group 28002" transform="translate(0.003)">
                <g id="Group_28001" data-name="Group 28001" clip-path="url(#clip-path-20)">
                  <path id="Path_12849" data-name="Path 12849" d="M171.968,57.432l-.131,1.485-.291,3.343h-5.254L166,58.917l-.131-1.485Z" transform="translate(-165.872 -57.432)" fill="#040504"/>
                </g>
              </g>
            </g>
          </g>
        </g>
        <g id="Group_28010" data-name="Group 28010" transform="translate(189.44 65.592)" opacity="0.1">
          <g id="Group_28009" data-name="Group 28009">
            <g id="Group_28008" data-name="Group 28008" clip-path="url(#clip-path-21)">
              <g id="Group_28007" data-name="Group 28007">
                <g id="Group_28006" data-name="Group 28006" clip-path="url(#clip-path-21)">
                  <path id="Path_12850" data-name="Path 12850" d="M171.967,57.432l-.131,1.485H166l-.131-1.485Z" transform="translate(-165.872 -57.432)" fill="#040504"/>
                </g>
              </g>
            </g>
          </g>
        </g>
        <g id="Group_28015" data-name="Group 28015" transform="translate(189.446 65.592)" opacity="0.05">
          <g id="Group_28014" data-name="Group 28014">
            <g id="Group_28013" data-name="Group 28013" clip-path="url(#clip-path-23)">
              <g id="Group_28012" data-name="Group 28012">
                <g id="Group_28011" data-name="Group 28011" clip-path="url(#clip-path-24)">
                  <path id="Path_12851" data-name="Path 12851" d="M166.144,57.432h.105v.2h-.362l-.01-.114h.267Zm.837.081h-.312v-.081h-.106v.2h.523v-.2h-.106Zm.837,0h-.312v-.081H167.4v.2h.524v-.2h-.106Zm.837,0h-.312v-.081h-.106v.2h.523v-.2h-.106Zm.837,0h-.312v-.081h-.106v.2h.524v-.2h-.106Zm.837,0h-.312v-.081h-.106v.2h.523v-.2h-.106Zm.837,0h-.312v-.081h-.106v.2h.524v-.2h-.106Zm.525,0v-.081h-.106v.2h.364l.01-.114Zm0,.343v-.228h-.525v.228h-.312v-.228h-.525v.228h-.312v-.228h-.525v.228h-.312v-.228h-.525v.228h-.312v-.228h-.525v.228h-.312v-.228h-.525v.228h-.312v-.228h-.525v.228h-.236l.01.114h.331v-.228h.314v.228h.523v-.228h.313v.228h.524v-.228h.313v.228h.523v-.228h.313v.228h.524v-.228h.313v.228h.523v-.228h.313v.228h.524v-.228h.314v.228h.333l.01-.114Zm0,.343V57.97h-.525V58.2h-.312V57.97h-.525V58.2h-.312V57.97h-.525V58.2h-.312V57.97h-.525V58.2h-.312V57.97h-.525V58.2h-.312V57.97h-.525V58.2h-.312V57.97h-.525V58.2h-.207l.01.114h.3v-.228h.314v.228h.523v-.228h.313v.228h.524v-.228h.313v.228h.523v-.228h.313v.228h.524v-.228h.313v.228h.523v-.228h.313v.228h.524v-.228h.314v.228h.3l.01-.114Zm0,.343v-.228h-.525v.228h-.312v-.228h-.525v.228h-.312v-.228h-.525v.228h-.312v-.228h-.525v.228h-.312v-.228h-.525v.228h-.312v-.228h-.525v.228h-.312v-.228h-.525v.228h-.174l.01.114h.272v-.228h.314v.228h.523v-.228h.313v.228h.524v-.228h.313v.228h.523v-.228h.313v.228h.524v-.228h.313v.228h.523v-.228h.313v.228h.524v-.228h.314v.228h.274l.01-.114Zm0,.343v-.228h-.525v.228h-.312v-.228h-.525v.228h-.312v-.228h-.525v.228h-.312v-.228h-.525v.228h-.312v-.228h-.525v.228h-.312v-.228h-.525v.228h-.312v-.228h-.525v.228H166v.05L166,59h.242v-.228h.314V59h.523v-.228h.313V59h.524v-.228h.313V59h.523v-.228h.313V59h.524v-.228h.313V59h.523v-.228h.313V59h.524v-.228h.314V59h.243v-.115Zm0,.343V59h-.525v.228h-.312V59h-.525v.228h-.312V59h-.525v.228h-.312V59h-.525v.228h-.312V59h-.525v.228h-.312V59h-.525v.228h-.312V59h-.525v.228h-.114l.01.114h.212v-.228h.314v.228h.523v-.228h.313v.228h.524v-.228h.313v.228h.523v-.228h.313v.228h.524v-.228h.313v.228h.523v-.228h.313v.228h.524v-.228h.314v.228h.215l.01-.114Zm0,.343V59.34h-.525v.228h-.312V59.34h-.525v.228h-.312V59.34h-.525v.228h-.312V59.34h-.525v.228h-.312V59.34h-.525v.228h-.312V59.34h-.525v.228h-.312V59.34h-.525v.228h-.088l.009.114h.184v-.228h.314v.228h.523v-.228h.313v.228h.524v-.228h.313v.228h.523v-.228h.313v.228h.524v-.228h.313v.228h.523v-.228h.313v.228h.524v-.228h.314v.228h.185l.01-.114Zm0,.343v-.228h-.525v.228h-.312v-.228h-.525v.228h-.312v-.228h-.525v.228h-.312v-.228h-.525v.228h-.312v-.228h-.525v.228h-.312v-.228h-.525v.228h-.312v-.228h-.525v.228h-.059l.01.114h.153V59.8h.314v.228h.523V59.8h.313v.228h.524V59.8h.313v.228h.523V59.8h.313v.228h.524V59.8h.313v.228h.523V59.8h.313v.228h.524V59.8h.314v.228h.155l.01-.114Zm0,.343v-.228h-.525v.228h-.312v-.228h-.525v.228h-.312v-.228h-.525v.228h-.312v-.228h-.525v.228h-.312v-.228h-.525v.228h-.312v-.228h-.525v.228h-.312v-.228h-.525v.228h-.029l.01.114h.123V60.14h.314v.228h.523V60.14h.313v.228h.524V60.14h.313v.228h.523V60.14h.313v.228h.524V60.14h.313v.228h.523V60.14h.313v.228h.524V60.14h.314v.228h.126l.01-.114Zm0,.343v-.228h-.525V60.6h-.312v-.228h-.525V60.6h-.312v-.228h-.525V60.6h-.312v-.228h-.525V60.6h-.312v-.228h-.525V60.6h-.312v-.228h-.525V60.6h-.312v-.228h-.525v.212l.011.127h.094v-.228h.314v.228h.523v-.228h.313v.228h.524v-.228h.313v.228h.523v-.228h.313v.228h.524v-.228h.313v.228h.523v-.228h.313v.228h.524v-.228h.314v.228h.1Zm-.525.114v.228h-.312v-.228h-.525v.228h-.312v-.228h-.525v.228h-.312v-.228h-.525v.228h-.312v-.228h-.525v.228h-.312v-.228h-.525v.228h-.312v-.228h-.514l.03.343h.065v-.228h.314v.228h.523v-.228h.313v.228h.524v-.228h.313v.228h.523v-.228h.313v.228h.524v-.228h.313v.228h.523v-.228h.313v.228h.524v-.228h.314v.228h.067l.03-.343Zm0,.343v.228h-.312v-.228h-.525v.228h-.312v-.228h-.525v.228h-.312v-.228h-.525v.228h-.312v-.228h-.525v.228h-.312v-.228h-.525v.228h-.312v-.228h-.484l.03.343h.035v-.228h.314V61.4h.523v-.228h.313V61.4h.524v-.228h.313V61.4h.523v-.228h.313V61.4h.524v-.228h.313V61.4h.523v-.228h.313V61.4h.524v-.228h.314V61.4h.038l.03-.343Zm0,.343v.228h-.312V61.4h-.525v.228h-.312V61.4h-.525v.228h-.312V61.4h-.525v.228h-.312V61.4h-.525v.228h-.312V61.4h-.525v.228h-.312V61.4h-.457l.03.343V61.51h.314v.228h.523V61.51h.313v.228h.524V61.51h.313v.228h.523V61.51h.313v.228h.524V61.51h.313v.228h.523V61.51h.313v.228h.524V61.51h.314v.228h.007l.031-.343Zm0,.343v.228h-.312v-.228h-.525v.228h-.312v-.228h-.525v.228h-.312v-.228h-.525v.228h-.312v-.228h-.525v.228h-.312v-.228h-.525v.228h-.312v-.228h-.426l.01.114h.309v.228h.523v-.228h.313v.228h.524v-.228h.313v.228h.523v-.228h.313v.228h.524v-.228h.313v.228h.523v-.228h.313v.228h.524v-.228h.311l.01-.114Zm0,.343v.228h-.312v-.228h-.525v.228h-.312v-.228h-.525v.228h-.312v-.228h-.525v.228h-.312v-.228h-.525v.228h-.312v-.228h-.525v.228h-.312v-.228h-.4l.01.114h.28v.114h.523V62.2h.313v.114h.524V62.2h.313v.114h.523V62.2h.313v.114h.524V62.2h.313v.114h.523V62.2h.313v.114h.524V62.2h.281l.01-.114Z" transform="translate(-165.877 -57.432)" fill="#040504"/>
                </g>
              </g>
            </g>
          </g>
        </g>
        <rect id="Rectangle_9022" data-name="Rectangle 9022" width="6.705" height="0.681" transform="translate(189.135 65.332)" fill="#ffba11"/>
        <g id="Group_28020" data-name="Group 28020" transform="translate(189.135 65.332)" opacity="0.3">
          <g id="Group_28019" data-name="Group 28019">
            <g id="Group_28018" data-name="Group 28018" clip-path="url(#clip-path-25)">
              <g id="Group_28017" data-name="Group 28017">
                <g id="Group_28016" data-name="Group 28016" clip-path="url(#clip-path-25)">
                  <rect id="Rectangle_9023" data-name="Rectangle 9023" width="6.705" height="0.681" transform="translate(0.001)" fill="#040504"/>
                </g>
              </g>
            </g>
          </g>
        </g>
        <path id="Path_12852" data-name="Path 12852" d="M172.284,57.429a1.972,1.972,0,0,1-.343.441,1.061,1.061,0,0,1-.477.282.584.584,0,0,1-.534-.114,1.251,1.251,0,0,1-.333-.451h.037a3.037,3.037,0,0,1-.307.585,1.568,1.568,0,0,1-.214.255.706.706,0,0,1-.289.172.482.482,0,0,1-.336-.041.825.825,0,0,1-.257-.217,1.86,1.86,0,0,1-.3-.59h.05a1.859,1.859,0,0,1-.3.59.812.812,0,0,1-.257.217.482.482,0,0,1-.336.041.687.687,0,0,1-.289-.172,1.523,1.523,0,0,1-.214-.255,3.037,3.037,0,0,1-.307-.585h.037a1.346,1.346,0,0,1-.322.481.626.626,0,0,1-.254.145.6.6,0,0,1-.291,0,1.058,1.058,0,0,1-.483-.307,2.015,2.015,0,0,1-.332-.468,2.062,2.062,0,0,0,.343.457,1.053,1.053,0,0,0,.481.292.571.571,0,0,0,.278,0,.6.6,0,0,0,.239-.142,1.328,1.328,0,0,0,.307-.471l.018-.045.018.045a3.166,3.166,0,0,0,.308.571,1.534,1.534,0,0,0,.209.246.645.645,0,0,0,.27.161.434.434,0,0,0,.3-.039.769.769,0,0,0,.24-.206,1.866,1.866,0,0,0,.292-.571l.025-.079.025.079a1.866,1.866,0,0,0,.292.571.769.769,0,0,0,.24.206.435.435,0,0,0,.3.039.645.645,0,0,0,.27-.161,1.534,1.534,0,0,0,.209-.246,3.092,3.092,0,0,0,.307-.571l.018-.042.018.042a1.192,1.192,0,0,0,.318.44.616.616,0,0,0,.24.123.631.631,0,0,0,.27,0,1.054,1.054,0,0,0,.475-.267,1.9,1.9,0,0,0,.343-.432" transform="translate(23.533 8.16)" fill="#29383e"/>
        <path id="Path_12853" data-name="Path 12853" d="M167.226,57.574a.126.126,0,1,1-.126-.126.125.125,0,0,1,.126.126" transform="translate(23.725 8.162)" fill="#29383e"/>
        <path id="Path_12854" data-name="Path 12854" d="M165.788,57.445a.126.126,0,1,1-.126-.126.125.125,0,0,1,.126.126" transform="translate(23.52 8.144)" fill="#29383e"/>
        <path id="Path_12855" data-name="Path 12855" d="M171.6,57.445a.126.126,0,1,1-.126-.126.125.125,0,0,1,.126.126" transform="translate(24.347 8.144)" fill="#29383e"/>
        <path id="Path_12856" data-name="Path 12856" d="M170.154,57.574a.126.126,0,1,1-.126-.126.125.125,0,0,1,.126.126" transform="translate(24.141 8.162)" fill="#29383e"/>
        <path id="Path_12857" data-name="Path 12857" d="M168.681,57.69a.126.126,0,1,1-.126-.126.125.125,0,0,1,.126.126Z" transform="translate(23.931 8.179)" fill="#29383e"/>
        <path id="Path_12858" data-name="Path 12858" d="M166.222,58.419a.447.447,0,0,1-.893,0,1,1,0,0,1,.332-.685h.228a1,1,0,0,1,.331.685" transform="translate(23.491 8.203)" fill="#ffba11"/>
        <g id="Group_28025" data-name="Group 28025" transform="translate(188.817 65.933)" opacity="0.1">
          <g id="Group_28024" data-name="Group 28024">
            <g id="Group_28023" data-name="Group 28023" clip-path="url(#clip-path-27)">
              <g id="Group_28022" data-name="Group 28022" transform="translate(0.001 0.001)">
                <g id="Group_28021" data-name="Group 28021" clip-path="url(#clip-path-28)">
                  <path id="Path_12859" data-name="Path 12859" d="M166.222,58.42a.448.448,0,0,1-.894.046.3.3,0,0,1,0-.046.335.335,0,0,1,0-.048.4.4,0,1,0,.8-.025.889.889,0,0,0-.3-.617h.059a1,1,0,0,1,.332.685" transform="translate(-165.328 -57.731)" fill="#040504"/>
                </g>
              </g>
            </g>
          </g>
        </g>
        <path id="Path_12860" data-name="Path 12860" d="M165.979,57.473l-.114.3h-.228l-.114-.3Z" transform="translate(23.518 8.166)" fill="#ffba11"/>
        <g id="Group_28030" data-name="Group 28030" transform="translate(189.13 65.864)" opacity="0.1">
          <g id="Group_28029" data-name="Group 28029">
            <g id="Group_28028" data-name="Group 28028" clip-path="url(#clip-path-29)">
              <g id="Group_28027" data-name="Group 28027">
                <g id="Group_28026" data-name="Group 28026" clip-path="url(#clip-path-29)">
                  <path id="Path_12861" data-name="Path 12861" d="M165.878,57.67l-.027.071h-.228l-.019-.051Z" transform="translate(-165.601 -57.67)" fill="#040504"/>
                </g>
              </g>
            </g>
          </g>
        </g>
        <g id="Group_28035" data-name="Group 28035" transform="translate(188.899 66.296)" opacity="0.2">
          <g id="Group_28034" data-name="Group 28034">
            <g id="Group_28033" data-name="Group 28033" clip-path="url(#clip-path-31)">
              <g id="Group_28032" data-name="Group 28032" transform="translate(0.001)">
                <g id="Group_28031" data-name="Group 28031" clip-path="url(#clip-path-32)">
                  <path id="Path_12862" data-name="Path 12862" d="M165.712,58.3c0,.14-.071.254-.158.254s-.156-.114-.156-.254.071-.254.156-.254.158.114.158.254" transform="translate(-165.399 -58.048)" fill="#fff"/>
                </g>
              </g>
            </g>
          </g>
        </g>
        <path id="Path_12863" data-name="Path 12863" d="M167.583,58.571a.447.447,0,1,1-.893,0,1,1,0,0,1,.332-.685h.228a1,1,0,0,1,.331.685" transform="translate(23.684 8.225)" fill="#ffba11"/>
        <g id="Group_28040" data-name="Group 28040" transform="translate(190.372 66.1)" opacity="0.1">
          <g id="Group_28039" data-name="Group 28039">
            <g id="Group_28038" data-name="Group 28038" clip-path="url(#clip-path-27)">
              <g id="Group_28037" data-name="Group 28037" transform="translate(0.001 0.007)">
                <g id="Group_28036" data-name="Group 28036" clip-path="url(#clip-path-28)">
                  <path id="Path_12864" data-name="Path 12864" d="M167.583,58.567a.448.448,0,0,1-.894.046.308.308,0,0,1,0-.046.34.34,0,0,1,0-.048.4.4,0,0,0,.8-.025.892.892,0,0,0-.3-.617h.059a1,1,0,0,1,.332.685" transform="translate(-166.689 -57.884)" fill="#040504"/>
                </g>
              </g>
            </g>
          </g>
        </g>
        <path id="Path_12865" data-name="Path 12865" d="M167.34,57.624l-.114.3H167l-.114-.3Z" transform="translate(23.712 8.187)" fill="#ffba11"/>
        <g id="Group_28045" data-name="Group 28045" transform="translate(190.686 66.034)" opacity="0.1">
          <g id="Group_28044" data-name="Group 28044">
            <g id="Group_28043" data-name="Group 28043" clip-path="url(#clip-path-35)">
              <g id="Group_28042" data-name="Group 28042" transform="translate(0 0.003)">
                <g id="Group_28041" data-name="Group 28041" clip-path="url(#clip-path-29)">
                  <path id="Path_12866" data-name="Path 12866" d="M167.241,57.819l-.027.071h-.228l-.019-.051Z" transform="translate(-166.963 -57.822)" fill="#040504"/>
                </g>
              </g>
            </g>
          </g>
        </g>
        <g id="Group_28050" data-name="Group 28050" transform="translate(190.453 66.469)" opacity="0.2">
          <g id="Group_28049" data-name="Group 28049">
            <g id="Group_28048" data-name="Group 28048" clip-path="url(#clip-path-31)">
              <g id="Group_28047" data-name="Group 28047" transform="translate(0.001)">
                <g id="Group_28046" data-name="Group 28046" clip-path="url(#clip-path-32)">
                  <path id="Path_12867" data-name="Path 12867" d="M167.073,58.454c0,.14-.071.254-.156.254s-.158-.114-.158-.254.071-.254.158-.254.156.114.156.254" transform="translate(-166.76 -58.2)" fill="#fff"/>
                </g>
              </g>
            </g>
          </g>
        </g>
        <path id="Path_12868" data-name="Path 12868" d="M169.049,58.648a.447.447,0,1,1-.893,0,1,1,0,0,1,.332-.685h.228a1,1,0,0,1,.331.685" transform="translate(23.892 8.236)" fill="#ffba11"/>
        <g id="Group_28055" data-name="Group 28055" transform="translate(192.048 66.195)" opacity="0.1">
          <g id="Group_28054" data-name="Group 28054">
            <g id="Group_28053" data-name="Group 28053" clip-path="url(#clip-path-39)">
              <g id="Group_28052" data-name="Group 28052">
                <g id="Group_28051" data-name="Group 28051" clip-path="url(#clip-path-28)">
                  <path id="Path_12869" data-name="Path 12869" d="M169.05,58.65a.448.448,0,0,1-.894.046.3.3,0,0,1,0-.046V58.6a.4.4,0,1,0,.8-.025.891.891,0,0,0-.3-.617h.059a1,1,0,0,1,.332.685" transform="translate(-168.156 -57.96)" fill="#040504"/>
                </g>
              </g>
            </g>
          </g>
        </g>
        <path id="Path_12870" data-name="Path 12870" d="M168.806,57.7l-.114.3h-.228l-.114-.3Z" transform="translate(23.92 8.198)" fill="#ffba11"/>
        <g id="Group_28060" data-name="Group 28060" transform="translate(192.361 66.124)" opacity="0.1">
          <g id="Group_28059" data-name="Group 28059">
            <g id="Group_28058" data-name="Group 28058" clip-path="url(#clip-path-29)">
              <g id="Group_28057" data-name="Group 28057">
                <g id="Group_28056" data-name="Group 28056" clip-path="url(#clip-path-29)">
                  <path id="Path_12871" data-name="Path 12871" d="M168.707,57.9l-.027.071h-.228l-.019-.051Z" transform="translate(-168.43 -57.898)" fill="#040504"/>
                </g>
              </g>
            </g>
          </g>
        </g>
        <g id="Group_28065" data-name="Group 28065" transform="translate(192.128 66.557)" opacity="0.2">
          <g id="Group_28064" data-name="Group 28064">
            <g id="Group_28063" data-name="Group 28063" clip-path="url(#clip-path-31)">
              <g id="Group_28062" data-name="Group 28062" transform="translate(0.001)">
                <g id="Group_28061" data-name="Group 28061" clip-path="url(#clip-path-32)">
                  <path id="Path_12872" data-name="Path 12872" d="M168.54,58.531c0,.14-.071.254-.156.254s-.158-.114-.158-.254.071-.254.158-.254.156.114.156.254" transform="translate(-168.227 -58.277)" fill="#fff"/>
                </g>
              </g>
            </g>
          </g>
        </g>
        <path id="Path_12873" data-name="Path 12873" d="M170.515,58.571a.447.447,0,0,1-.893,0,1,1,0,0,1,.331-.685h.228a1,1,0,0,1,.331.685" transform="translate(24.101 8.225)" fill="#ffba11"/>
        <g id="Group_28070" data-name="Group 28070" transform="translate(193.72 66.1)" opacity="0.1">
          <g id="Group_28069" data-name="Group 28069">
            <g id="Group_28068" data-name="Group 28068" clip-path="url(#clip-path-27)">
              <g id="Group_28067" data-name="Group 28067" transform="translate(0.001 0.007)">
                <g id="Group_28066" data-name="Group 28066" clip-path="url(#clip-path-28)">
                  <path id="Path_12874" data-name="Path 12874" d="M170.515,58.567a.448.448,0,0,1-.894.046.3.3,0,0,1,0-.046.335.335,0,0,1,0-.048.4.4,0,1,0,.8-.025.9.9,0,0,0-.3-.617h.059a1,1,0,0,1,.332.685" transform="translate(-169.621 -57.884)" fill="#040504"/>
                </g>
              </g>
            </g>
          </g>
        </g>
        <path id="Path_12875" data-name="Path 12875" d="M170.271,57.624l-.114.3h-.228l-.114-.3Z" transform="translate(24.128 8.187)" fill="#ffba11"/>
        <g id="Group_28075" data-name="Group 28075" transform="translate(194.033 66.034)" opacity="0.1">
          <g id="Group_28074" data-name="Group 28074">
            <g id="Group_28073" data-name="Group 28073" clip-path="url(#clip-path-47)">
              <g id="Group_28072" data-name="Group 28072" transform="translate(0 0.003)">
                <g id="Group_28071" data-name="Group 28071" clip-path="url(#clip-path-29)">
                  <path id="Path_12876" data-name="Path 12876" d="M170.171,57.819l-.027.071h-.228l-.019-.051Z" transform="translate(-169.894 -57.822)" fill="#040504"/>
                </g>
              </g>
            </g>
          </g>
        </g>
        <g id="Group_28080" data-name="Group 28080" transform="translate(193.803 66.469)" opacity="0.2">
          <g id="Group_28079" data-name="Group 28079">
            <g id="Group_28078" data-name="Group 28078" clip-path="url(#clip-path-31)">
              <g id="Group_28077" data-name="Group 28077">
                <g id="Group_28076" data-name="Group 28076" clip-path="url(#clip-path-32)">
                  <path id="Path_12877" data-name="Path 12877" d="M170.006,58.454c0,.14-.071.254-.156.254s-.158-.114-.158-.254.071-.254.158-.254.156.114.156.254" transform="translate(-169.692 -58.2)" fill="#fff"/>
                </g>
              </g>
            </g>
          </g>
        </g>
        <path id="Path_12878" data-name="Path 12878" d="M171.854,58.419a.447.447,0,1,1-.893,0,1,1,0,0,1,.332-.685h.228a1,1,0,0,1,.331.685" transform="translate(24.291 8.203)" fill="#ffba11"/>
        <g id="Group_28085" data-name="Group 28085" transform="translate(195.251 65.933)" opacity="0.1">
          <g id="Group_28084" data-name="Group 28084">
            <g id="Group_28083" data-name="Group 28083" clip-path="url(#clip-path-27)">
              <g id="Group_28082" data-name="Group 28082" transform="translate(0.001 0.001)">
                <g id="Group_28081" data-name="Group 28081" clip-path="url(#clip-path-28)">
                  <path id="Path_12879" data-name="Path 12879" d="M171.855,58.42a.448.448,0,0,1-.894.046.3.3,0,0,1,0-.046.335.335,0,0,1,0-.048.4.4,0,1,0,.8-.025.891.891,0,0,0-.3-.617h.059a1,1,0,0,1,.332.685" transform="translate(-170.961 -57.731)" fill="#040504"/>
                </g>
              </g>
            </g>
          </g>
        </g>
        <path id="Path_12880" data-name="Path 12880" d="M171.611,57.473l-.114.3h-.228l-.114-.3Z" transform="translate(24.318 8.166)" fill="#ffba11"/>
        <g id="Group_28090" data-name="Group 28090" transform="translate(195.564 65.864)" opacity="0.1">
          <g id="Group_28089" data-name="Group 28089">
            <g id="Group_28088" data-name="Group 28088" clip-path="url(#clip-path-29)">
              <g id="Group_28087" data-name="Group 28087">
                <g id="Group_28086" data-name="Group 28086" clip-path="url(#clip-path-29)">
                  <path id="Path_12881" data-name="Path 12881" d="M171.511,57.67l-.027.071h-.228l-.019-.051Z" transform="translate(-171.234 -57.67)" fill="#040504"/>
                </g>
              </g>
            </g>
          </g>
        </g>
        <g id="Group_28095" data-name="Group 28095" transform="translate(195.332 66.296)" opacity="0.2">
          <g id="Group_28094" data-name="Group 28094">
            <g id="Group_28093" data-name="Group 28093" clip-path="url(#clip-path-31)">
              <g id="Group_28092" data-name="Group 28092" transform="translate(0.001)">
                <g id="Group_28091" data-name="Group 28091" clip-path="url(#clip-path-32)">
                  <path id="Path_12882" data-name="Path 12882" d="M171.345,58.3c0,.14-.071.254-.158.254s-.156-.114-.156-.254.071-.254.156-.254.158.114.158.254" transform="translate(-171.032 -58.048)" fill="#fff"/>
                </g>
              </g>
            </g>
          </g>
        </g>
        <path id="Path_12883" data-name="Path 12883" d="M162.759,35.166c-1.457.522-4.029,3.011-4.029,7.364,0,5.139,3.054,8.932,7.141,13.134h1.286Z" transform="translate(22.553 4.997)" fill="#ffba11"/>
        <g id="Group_28100" data-name="Group 28100" transform="translate(181.282 40.159)" opacity="0.2">
          <g id="Group_28099" data-name="Group 28099">
            <g id="Group_28098" data-name="Group 28098" clip-path="url(#clip-path-57)">
              <g id="Group_28097" data-name="Group 28097" transform="translate(0.001)">
                <g id="Group_28096" data-name="Group 28096" clip-path="url(#clip-path-58)">
                  <path id="Path_12884" data-name="Path 12884" d="M166.326,55.661h-.457c-4.086-4.2-7.14-7.995-7.14-13.134,0-4.352,2.571-6.842,4.029-7.364-1.458.522-3.5,3.591-3.352,7.364.206,5.139,3.693,8.908,6.919,13.134" transform="translate(-158.73 -35.163)" fill="#fff"/>
                </g>
              </g>
            </g>
          </g>
        </g>
        <path id="Path_12885" data-name="Path 12885" d="M175.37,35.166c1.458.522,4.029,3.011,4.029,7.364,0,5.139-3.054,8.932-7.141,13.134h-1.285Z" transform="translate(24.293 4.997)" fill="#ffba11"/>
        <g id="Group_28105" data-name="Group 28105" transform="translate(196.096 40.159)" opacity="0.2">
          <g id="Group_28104" data-name="Group 28104">
            <g id="Group_28103" data-name="Group 28103" clip-path="url(#clip-path-57)">
              <g id="Group_28102" data-name="Group 28102">
                <g id="Group_28101" data-name="Group 28101" clip-path="url(#clip-path-58)">
                  <path id="Path_12886" data-name="Path 12886" d="M171.7,55.661h.457c4.086-4.2,7.14-7.995,7.14-13.134,0-4.352-2.571-6.842-4.029-7.364,1.457.522,3.5,3.591,3.352,7.364-.207,5.139-3.695,8.908-6.919,13.134" transform="translate(-171.7 -35.163)" fill="#fff"/>
                </g>
              </g>
            </g>
          </g>
        </g>
        <path id="Path_12887" data-name="Path 12887" d="M165.944,33.791c-2.323,0-5.482,2.627-5.859,6.613-.5,5.368,1.471,9.365,6.474,15.452h1.217Z" transform="translate(22.735 4.801)" fill="#fff"/>
        <path id="Path_12888" data-name="Path 12888" d="M165.95,33.792a5.09,5.09,0,0,0-3.04,1.256,7.937,7.937,0,0,0-2.835,5.847,15.124,15.124,0,0,0,2.132,8.815,48.127,48.127,0,0,0,4.355,6.12h1.217c-.058.18-1.814-22.082-1.827-22.042m0,0c.006.008,1.857,22.08,1.862,22.091h-1.256a48.227,48.227,0,0,1-3.957-5.428,17.269,17.269,0,0,1-2.427-6.214,11.664,11.664,0,0,1,.672-6.586c.946-1.93,2.861-3.791,5.11-3.864" transform="translate(22.73 4.801)" fill="#1c262a"/>
        <path id="Path_12889" data-name="Path 12889" d="M168.78,32.881c-.989,0-4.752.306-6.087,5.149-1.355,4.911.228,9.046,1.838,12.537,1.671,3.628,2.709,5.418,2.709,5.418h1.541Z" transform="translate(23.043 4.672)" fill="#ffba11"/>
        <g id="Group_28110" data-name="Group 28110" transform="translate(185.224 37.553)" opacity="0.2">
          <g id="Group_28109" data-name="Group 28109">
            <g id="Group_28108" data-name="Group 28108" clip-path="url(#clip-path-61)">
              <g id="Group_28107" data-name="Group 28107">
                <g id="Group_28106" data-name="Group 28106" clip-path="url(#clip-path-62)">
                  <path id="Path_12890" data-name="Path 12890" d="M165.1,50.789c1.568,3.748,2.205,5.2,2.205,5.2h-.063s-1.038-1.79-2.709-5.419c-1.607-3.489-3.192-7.622-1.836-12.536,1.335-4.842,5.1-5.149,6.087-5.149-.949,0-3.634.725-5.113,5.31-1.215,3.769.008,9.2,1.43,12.6" transform="translate(-162.181 -32.881)" fill="#fff"/>
                </g>
              </g>
            </g>
          </g>
        </g>
        <g id="Group_28115" data-name="Group 28115" transform="translate(186.586 42.283)" opacity="0.2">
          <g id="Group_28114" data-name="Group 28114">
            <g id="Group_28113" data-name="Group 28113" clip-path="url(#clip-path-63)">
              <g id="Group_28112" data-name="Group 28112">
                <g id="Group_28111" data-name="Group 28111" clip-path="url(#clip-path-64)">
                  <path id="Path_12891" data-name="Path 12891" d="M164,37.049a6.372,6.372,0,0,0-.581,3.151c.2.628.987-1.477,1-1.956s-.263-1.384-.419-1.195" transform="translate(-163.369 -37.023)" fill="#fff"/>
                </g>
              </g>
            </g>
          </g>
        </g>
        <path id="Path_12892" data-name="Path 12892" d="M172.1,33.791c2.323,0,5.482,2.627,5.859,6.613.5,5.368-1.47,9.365-6.474,15.452h-1.217Z" transform="translate(24.193 4.801)" fill="#fff"/>
        <path id="Path_12893" data-name="Path 12893" d="M172.1,33.791c2.249.071,4.166,1.935,5.11,3.863a11.669,11.669,0,0,1,.672,6.588,17.269,17.269,0,0,1-2.427,6.214,45.265,45.265,0,0,1-3.97,5.428h-1.245c-.014-.007,1.87-22.078,1.86-22.091m0,0c-.021,0-1.767,22.182-1.827,22.042h1.217a48.014,48.014,0,0,0,4.355-6.12,15.126,15.126,0,0,0,2.136-8.815,7.932,7.932,0,0,0-2.834-5.847,5.077,5.077,0,0,0-3.04-1.256" transform="translate(24.189 4.801)" fill="#1c262a"/>
        <g id="Group_28120" data-name="Group 28120" transform="translate(195.187 38.592)" opacity="0.05">
          <g id="Group_28119" data-name="Group 28119">
            <g id="Group_28118" data-name="Group 28118" clip-path="url(#clip-path-65)">
              <g id="Group_28117" data-name="Group 28117">
                <g id="Group_28116" data-name="Group 28116" clip-path="url(#clip-path-65)">
                  <path id="Path_12894" data-name="Path 12894" d="M171.4,55.856H170.9c5.006-6.085,6.685-10.08,6.179-15.452-.343-3.707-2.855-6.243-5.074-6.575v-.038c2.323,0,5.482,2.627,5.859,6.613.506,5.368-1.469,9.365-6.474,15.452" transform="translate(-170.904 -33.791)" fill="#040504"/>
                </g>
              </g>
            </g>
          </g>
        </g>
        <path id="Path_12895" data-name="Path 12895" d="M169.121,32.881c.99,0,4.752.306,6.087,5.149,1.354,4.911-.228,9.046-1.838,12.537-1.671,3.628-2.709,5.418-2.709,5.418h-1.541Z" transform="translate(24.03 4.672)" fill="#ffba11"/>
        <g id="Group_28125" data-name="Group 28125" transform="translate(193.151 37.553)" opacity="0.05">
          <g id="Group_28124" data-name="Group 28124">
            <g id="Group_28123" data-name="Group 28123" clip-path="url(#clip-path-61)">
              <g id="Group_28122" data-name="Group 28122">
                <g id="Group_28121" data-name="Group 28121" clip-path="url(#clip-path-62)">
                  <path id="Path_12896" data-name="Path 12896" d="M172.805,50.789c-1.568,3.748-2.205,5.2-2.205,5.2h.063s1.038-1.79,2.709-5.419c1.607-3.489,3.192-7.622,1.836-12.536-1.335-4.842-5.1-5.149-6.087-5.149.949,0,3.634.725,5.113,5.31,1.215,3.769-.009,9.2-1.43,12.6" transform="translate(-169.121 -32.881)" fill="#040504"/>
                </g>
              </g>
            </g>
          </g>
        </g>
        <path id="Path_12897" data-name="Path 12897" d="M172.255,44.728A56.423,56.423,0,0,1,169.937,56h-1.93a56.426,56.426,0,0,1-2.318-11.274c-.736-6.7.8-11.963,3.283-11.963s4.018,5.254,3.283,11.963" transform="translate(23.516 4.655)" fill="#fff"/>
        <path id="Path_12898" data-name="Path 12898" d="M172.258,44.73c-.211,1.9-.5,3.818-.878,5.7a50.239,50.239,0,0,1-1.429,5.583v.008H168v-.009A57.719,57.719,0,0,1,165.764,45.5c-.421-3.376-.512-7.435.827-10.612a4.092,4.092,0,0,1,1.447-1.868,1.828,1.828,0,0,1,2.223.248,5.777,5.777,0,0,1,1.462,2.572,22.824,22.824,0,0,1,.542,8.884m0,0a22.82,22.82,0,0,0-.561-8.879,5.775,5.775,0,0,0-1.461-2.557,1.8,1.8,0,0,0-2.189-.24,4.657,4.657,0,0,0-1.659,2.416c-1.213,3.6-.946,7.511-.431,11.222a58.765,58.765,0,0,0,2.047,9.3h1.929l-.013.008a50.442,50.442,0,0,0,1.44-5.577c.381-1.875.675-3.792.891-5.693" transform="translate(23.513 4.654)" fill="#1c262a"/>
        <g id="Group_28130" data-name="Group 28130" transform="translate(192.487 37.42)" opacity="0.05">
          <g id="Group_28129" data-name="Group 28129">
            <g id="Group_28128" data-name="Group 28128" clip-path="url(#clip-path-69)">
              <g id="Group_28127" data-name="Group 28127">
                <g id="Group_28126" data-name="Group 28126" clip-path="url(#clip-path-69)">
                  <path id="Path_12899" data-name="Path 12899" d="M171.823,44.728A56.5,56.5,0,0,1,169.505,56h-.2a69.457,69.457,0,0,0,1.833-11.274c.581-6.705-.635-11.963-2.6-11.963,2.481,0,4.018,5.254,3.283,11.963" transform="translate(-168.54 -32.765)" fill="#040504"/>
                </g>
              </g>
            </g>
          </g>
        </g>
        <path id="Path_12900" data-name="Path 12900" d="M169.969,44.905c-7.417,0-11.089-1.564-11.242-1.63a.4.4,0,0,1,.32-.734c.037.016,3.694,1.564,10.922,1.564s10.885-1.548,10.922-1.564a.4.4,0,0,1,.32.734c-.153.067-3.825,1.63-11.242,1.63" transform="translate(22.521 6.041)" fill="#ffba11"/>
        <g id="Group_28135" data-name="Group 28135" transform="translate(181.006 48.551)" opacity="0.3">
          <g id="Group_28134" data-name="Group 28134">
            <g id="Group_28133" data-name="Group 28133" clip-path="url(#clip-path-71)">
              <g id="Group_28132" data-name="Group 28132">
                <g id="Group_28131" data-name="Group 28131" clip-path="url(#clip-path-71)">
                  <path id="Path_12901" data-name="Path 12901" d="M169.969,44.905c-7.417,0-11.089-1.564-11.242-1.63a.4.4,0,0,1,.32-.734c.037.016,3.694,1.564,10.922,1.564s10.885-1.548,10.922-1.564a.4.4,0,0,1,.32.734c-.153.067-3.825,1.63-11.242,1.63" transform="translate(-158.485 -42.51)" fill="#040504"/>
                </g>
              </g>
            </g>
          </g>
        </g>
        <path id="Path_12902" data-name="Path 12902" d="M180.547,43.188a10.03,10.03,0,0,1-.914,1.924,6,6,0,0,1-.637.86,3.018,3.018,0,0,1-.843.672,1.562,1.562,0,0,1-1.075.151,1.9,1.9,0,0,1-.914-.594,4.367,4.367,0,0,1-.613-.891,6.558,6.558,0,0,1-.428-.991h.168c-.121.368-.26.725-.412,1.079a10.514,10.514,0,0,1-.511,1.037,6.407,6.407,0,0,1-.654.963,3.287,3.287,0,0,1-.417.419,1.871,1.871,0,0,1-.516.315,1.314,1.314,0,0,1-.3.081,1.294,1.294,0,0,1-.312,0,1.5,1.5,0,0,1-.584-.187,2.711,2.711,0,0,1-.861-.817,5.892,5.892,0,0,1-.571-1.018,8.3,8.3,0,0,1-.4-1.094h.228a8.135,8.135,0,0,1-.4,1.094,5.968,5.968,0,0,1-.571,1.018,2.723,2.723,0,0,1-.861.817,1.555,1.555,0,0,1-.585.187,1.294,1.294,0,0,1-.312,0,1.372,1.372,0,0,1-.3-.08,1.916,1.916,0,0,1-.516-.315,3.362,3.362,0,0,1-.417-.419,6.415,6.415,0,0,1-.656-.963,10.517,10.517,0,0,1-.511-1.037c-.153-.354-.291-.71-.413-1.079h.169a6.674,6.674,0,0,1-.428.991,4.413,4.413,0,0,1-.613.891,1.908,1.908,0,0,1-.914.594,1.556,1.556,0,0,1-1.075-.151,3.018,3.018,0,0,1-.843-.672,6.006,6.006,0,0,1-.637-.86,10.1,10.1,0,0,1-.914-1.924,10.411,10.411,0,0,0,.436.971,9.532,9.532,0,0,0,.528.921,5.886,5.886,0,0,0,.65.835,2.923,2.923,0,0,0,.829.63,1.458,1.458,0,0,0,.992.124,1.761,1.761,0,0,0,.838-.571,4.243,4.243,0,0,0,.579-.868,6.457,6.457,0,0,0,.4-.968l.081-.254.088.251a12.85,12.85,0,0,0,.933,2.069,6.207,6.207,0,0,0,.637.927,2.292,2.292,0,0,0,.852.669,1.167,1.167,0,0,0,1.011-.095,2.493,2.493,0,0,0,.782-.755,5.745,5.745,0,0,0,.542-.981,8.085,8.085,0,0,0,.381-1.06l.114-.417.114.417a8.083,8.083,0,0,0,.381,1.06,5.718,5.718,0,0,0,.544.982,2.49,2.49,0,0,0,.782.754,1.17,1.17,0,0,0,1.012.095,2.288,2.288,0,0,0,.851-.669,6.124,6.124,0,0,0,.637-.927,12.757,12.757,0,0,0,.934-2.069l.088-.25.08.251a6.408,6.408,0,0,0,.4.968,4.22,4.22,0,0,0,.579.869,1.769,1.769,0,0,0,.838.565,1.229,1.229,0,0,0,.5.026,1.669,1.669,0,0,0,.49-.15,2.923,2.923,0,0,0,.829-.63,5.879,5.879,0,0,0,.649-.835,9.565,9.565,0,0,0,.529-.922c.16-.316.308-.64.436-.971" transform="translate(22.618 6.136)" fill="#29383e"/>
        <path id="Path_12903" data-name="Path 12903" d="M180.482,43.346a6.272,6.272,0,0,1-.981,1.432,3.5,3.5,0,0,1-1.426.988,2.175,2.175,0,0,1-.873.1,2.111,2.111,0,0,1-.843-.26,2.887,2.887,0,0,1-.693-.545,3.516,3.516,0,0,1-.523-.712h.1a7.069,7.069,0,0,1-.487.754,5.97,5.97,0,0,1-.584.685,4.02,4.02,0,0,1-.7.571,2.41,2.41,0,0,1-.844.343,2.092,2.092,0,0,1-.914-.048,2.443,2.443,0,0,1-.815-.408,3.37,3.37,0,0,1-.643-.638,4.09,4.09,0,0,1-.477-.771h.147a4.09,4.09,0,0,1-.477.771,3.41,3.41,0,0,1-.644.638,2.432,2.432,0,0,1-.815.408,2.092,2.092,0,0,1-.914.048,2.41,2.41,0,0,1-.844-.343,4.012,4.012,0,0,1-.7-.571,5.768,5.768,0,0,1-.585-.685,6.78,6.78,0,0,1-.485-.754h.1a3.487,3.487,0,0,1-.515.7,2.914,2.914,0,0,1-.685.541,2.133,2.133,0,0,1-.826.27,2.159,2.159,0,0,1-.862-.083,3.312,3.312,0,0,1-1.424-.945,5.853,5.853,0,0,1-.97-1.409,5.919,5.919,0,0,0,.457.726,5.661,5.661,0,0,0,.547.656,3.26,3.26,0,0,0,1.416.9,2.179,2.179,0,0,0,.833.069,2.033,2.033,0,0,0,.788-.268,3.173,3.173,0,0,0,1.142-1.212l.051-.095.054.094a6.72,6.72,0,0,0,1.062,1.4,3.951,3.951,0,0,0,.68.545,2.278,2.278,0,0,0,.8.318,1.966,1.966,0,0,0,.847-.049,2.3,2.3,0,0,0,.763-.387,3.7,3.7,0,0,0,1.064-1.351l.074-.158.072.158a3.9,3.9,0,0,0,.457.739,3.236,3.236,0,0,0,.612.612,2.3,2.3,0,0,0,.763.387,1.967,1.967,0,0,0,.847.049,2.249,2.249,0,0,0,.8-.318,3.937,3.937,0,0,0,.685-.545,6.651,6.651,0,0,0,1.062-1.4l.054-.094.05.095a3.407,3.407,0,0,0,.5.685,2.791,2.791,0,0,0,.662.533,2.022,2.022,0,0,0,.8.259,2.126,2.126,0,0,0,.843-.088,3.437,3.437,0,0,0,1.42-.946,5.932,5.932,0,0,0,.55-.669,6.187,6.187,0,0,0,.457-.737" transform="translate(22.632 6.158)" fill="#29383e"/>
        <path id="Path_12904" data-name="Path 12904" d="M164.287,44.1a.4.4,0,1,1-.4-.4h0a.4.4,0,0,1,.4.4Z" transform="translate(23.228 6.209)" fill="#29383e"/>
        <path id="Path_12905" data-name="Path 12905" d="M159.685,43.236a.4.4,0,1,1-.4-.4h0a.4.4,0,0,1,.4.4" transform="translate(22.574 6.086)" fill="#29383e"/>
        <path id="Path_12906" data-name="Path 12906" d="M178.343,43.236a.4.4,0,1,1-.4-.4h0a.4.4,0,0,1,.4.4" transform="translate(25.225 6.086)" fill="#29383e"/>
        <path id="Path_12907" data-name="Path 12907" d="M173.692,44.1a.4.4,0,1,1-.4-.4h0a.4.4,0,0,1,.4.4Z" transform="translate(24.564 6.209)" fill="#29383e"/>
        <path id="Path_12908" data-name="Path 12908" d="M168.992,44.628a.4.4,0,1,1-.4-.4h0a.4.4,0,0,1,.4.4" transform="translate(23.897 6.284)" fill="#29383e"/>
        <path id="Path_12909" data-name="Path 12909" d="M173.114,53.111a3.4,3.4,0,0,0-.712,1.436h-6.712a3.4,3.4,0,0,0-.712-1.436Z" transform="translate(23.441 7.546)" fill="#ffba11"/>
        <g id="Group_28140" data-name="Group 28140" transform="translate(188.42 60.657)" opacity="0.4">
          <g id="Group_28139" data-name="Group 28139">
            <g id="Group_28138" data-name="Group 28138" clip-path="url(#clip-path-73)">
              <g id="Group_28137" data-name="Group 28137" transform="translate(0.003)">
                <g id="Group_28136" data-name="Group 28136" clip-path="url(#clip-path-74)">
                  <path id="Path_12910" data-name="Path 12910" d="M173.114,53.111a3.4,3.4,0,0,0-.712,1.436h-6.712a3.4,3.4,0,0,0-.712-1.436Z" transform="translate(-164.982 -53.111)" fill="#040504"/>
                </g>
              </g>
            </g>
          </g>
        </g>
        <path id="Path_12911" data-name="Path 12911" d="M166.811,53.113l1.848.069-1.688.086,1.3.069-1.239.228,1.248.2-1.248.063,1.455.228-.922.228,1.128.12-.793.135h2.056l-.6-.083.664-.207-.9-.034.965-.319-1-.075,1.1-.131-1.214-.172,1.172-.121-.793-.078,1.077-.216Z" transform="translate(23.701 7.545)" fill="#ffba11"/>
        <path id="Path_12912" data-name="Path 12912" d="M133.715,30.073a28.048,28.048,0,0,0-8.62,20.138,37.713,37.713,0,0,0,6.093,21.3l-1.082.844-16.1-2.049a39.925,39.925,0,0,1-4.226-18.822,32.731,32.731,0,0,1,6.181-18.7l17.259-3.426Z" transform="translate(15.597 4.172)" fill="#ffba11"/>
        <g id="Group_28145" data-name="Group 28145" transform="translate(139.256 33.534)" opacity="0.5">
          <g id="Group_28144" data-name="Group 28144">
            <g id="Group_28143" data-name="Group 28143" clip-path="url(#clip-path-75)">
              <g id="Group_28142" data-name="Group 28142" transform="translate(0.024)">
                <g id="Group_28141" data-name="Group 28141" clip-path="url(#clip-path-76)">
                  <path id="Path_12913" data-name="Path 12913" d="M123.37,50.208a37.708,37.708,0,0,0,6.09,21.307l-1.082.844s-5.9-7-6.4-21.5a25.73,25.73,0,0,1,9.518-21.5l.5.713a28.019,28.019,0,0,0-8.62,20.133" transform="translate(-121.955 -29.362)" fill="#fff"/>
                </g>
              </g>
            </g>
          </g>
        </g>
        <path id="Path_12914" data-name="Path 12914" d="M49.235,126.861c25.772,16.172,78.593,37.069,89.241,29.164,19.644-14.584,18.228-76.464,17.908-89.389-.137-5.511-49.909-2.356-49.881,3.54.019,5.139,4.174,40.4.383,42.643-1.561.925-18.73-2.354-48.284-1.59-22.637.586-17,10.85-9.365,15.633" transform="translate(6.042 9.062)" fill="#e3aacd"/>
        <path id="Path_12915" data-name="Path 12915" d="M104.4,98.418s-2.008-5.572-8.908-18.474C90.1,69.866,82.425,45.031,104.621,19.621c8.1-9.27,15.117-3.289,11.549,2.443-4.833,7.766-7.418,11.411-8.135,14.426,0,0,12.266-5.086,19.133-.765a149.535,149.535,0,0,1,17.139,12.57,31.538,31.538,0,0,1-2.065,3.417s9.426,7.252,7.34,18.544l.19,10Z" transform="translate(12.746 2.104)" fill="#e3aacd"/>
        <path id="Path_12916" data-name="Path 12916" d="M93.115,69.5c1.2-5.868,3.966-18.262,9.752-27.616,6.427-10.393,21.607-28.666,29.227-23.847,5.588,3.54-1.516,10.024-1.516,10.024s9.788-5.232,14.136-.933c3.963,3.918-.393,9.471-.393,9.471s5.423-2.96,8.512,1.548c3.716,5.423-8.257,10.736-9.238,19.484-.22,1.963-50.48,11.87-50.48,11.87" transform="translate(13.23 2.45)" fill="#e3aacd"/>
        <path id="Path_12917" data-name="Path 12917" d="M117.967,17.561l-7.525,10.562L102.765,20l7.728-7.845Z" transform="translate(14.601 1.727)" fill="#e3aacd"/>
        <path id="Path_12918" data-name="Path 12918" d="M135.008,22.873l-10.577,7.3-7.677-8.125L127.078,14.2Z" transform="translate(16.589 2.018)" fill="#e3aacd"/>
        <path id="Path_12919" data-name="Path 12919" d="M145.344,31.38l-9.708,7.538L125.922,27.5l11.492-6.3Z" transform="translate(17.892 3.011)" fill="#e3aacd"/>
        <path id="Path_12920" data-name="Path 12920" d="M149.429,37.393,141.441,47.96l-8.249-9.7,9.708-6.307Z" transform="translate(18.925 4.539)" fill="#e3aacd"/>
        <path id="Path_12921" data-name="Path 12921" d="M96.561,29.087c-7.792,13.879-7.89,30.656-2.227,45.294a98.722,98.722,0,0,0,6.7,14.2,69.2,69.2,0,0,1-7.735-13.8c-6.316-14.555-6.08-32.473,3.261-45.7" transform="translate(12.644 4.133)" fill="#d88dbb"/>
        <path id="Path_12922" data-name="Path 12922" d="M104.631,83.916l56.016-6.892s-5.97,73.717-20.586,79.165c-6.3,2.35-19.409-.222-33.931-4.856-19.154-6.114-40.772-15.819-52.481-22.563-20.587-11.856-9.974-21.928,5.611-22.081,23.994-.24,44.276,1.426,44.276,1.426.448.328,1.094-24.2,1.094-24.2" transform="translate(6.002 10.944)" fill="#ffba11"/>
        <path id="Path_12923" data-name="Path 12923" d="M144.365,89.183c-3.495.852-7.113,1.225-10.655,1.733q-5.24.749-10.485,1.429c-7.057.914-14.152,2.005-21.236,2.465a.129.129,0,0,1-.031-.256c7.025-1.607,14.214-2.507,21.32-3.473q5.348-.728,10.709-1.309a94.522,94.522,0,0,1,10.379-.858c.163,0,.142.235,0,.271" transform="translate(14.472 12.633)" fill="#1c262a"/>
        <path id="Path_12924" data-name="Path 12924" d="M104.572,82.732c-1.007.177-2.013.364-3.024.524l.132-.152c.281,5.059.412,10.122.364,15.2a66.538,66.538,0,0,1-.439,7.66,4.022,4.022,0,0,1-.524,1.672.963.963,0,0,1-.522.353,10.712,10.712,0,0,1-2.356.142c-11.406-.324-22.714-1.695-34.1-2.265,11.379-.612,22.766.492,34.123.863a14.076,14.076,0,0,0,1.9-.054c-.014.007.049-.009-.024.023a.454.454,0,0,0-.114.089,45.681,45.681,0,0,0,.853-8.519c.235-5.087.367-10.194.539-15.3,1.061-.1,2.125-.161,3.188-.236" transform="translate(9.108 11.754)" fill="#1c262a"/>
        <path id="Path_12925" data-name="Path 12925" d="M110.606,39.152l17.488-12.438L110.606,36.6Z" transform="translate(15.715 3.796)" fill="#d88dbb"/>
        <path id="Path_12926" data-name="Path 12926" d="M123.08,46.482l17.488-12.437L123.08,43.926Z" transform="translate(17.488 4.837)" fill="#d88dbb"/>
        <path id="Path_12927" data-name="Path 12927" d="M112.575,12.152,98.965,25.36,90.571,42.274,88.124,56.608l2.447,15.137L96.216,85.61l4.938,7.145,2.147-.265-4-5.857L91.184,67.95,89.927,56.986,91.2,44.869l5.188-11.806L98.7,28.118Z" transform="translate(12.521 1.727)" fill="#d88dbb"/>
        <path id="Path_12928" data-name="Path 12928" d="M125.967,154.667l11.028-3.368,7.188-33.63-41.419,28.3Z" transform="translate(14.601 16.719)" fill="#ffba11"/>
        <path id="Path_12929" data-name="Path 12929" d="M84.258,140.707,128.6,155.462l11.028-3.368L148.7,112.07l-11.353,36.7-8.748,3.323Z" transform="translate(11.972 15.923)" fill="#1c262a"/>
        <path id="Path_12930" data-name="Path 12930" d="M52.36,123.939l34.491,14.366L52.322,124.97Z" transform="translate(7.434 17.61)" fill="#1c262a"/>
        <path id="Path_12931" data-name="Path 12931" d="M137.039,22.849,138.583,17l9.46-.735.5,2.334.343-3.732,8.4-3.623,3.585,4.911.664-5.939h12.145l.268,7.83,1.827-8.515,6.967.685L199.2,28.5" transform="translate(19.471 1.354)" fill="#e3aacd"/>
        <path id="Path_12932" data-name="Path 12932" d="M147.109,18.334l-1.08,6.148,1.577-.729Z" transform="translate(20.749 2.605)" fill="#b89cc9"/>
        <path id="Path_12933" data-name="Path 12933" d="M158.3,16.453l-1.08,6.148,1.577-.729Z" transform="translate(22.338 2.338)" fill="#b89cc9"/>
        <path id="Path_12934" data-name="Path 12934" d="M169.8,16.453,168.72,22.6l1.576-.729Z" transform="translate(23.973 2.338)" fill="#b89cc9"/>
        <path id="Path_12935" data-name="Path 12935" d="M110.685,169.209l15.944,48.963-19.17.219Z" transform="translate(15.268 24.042)" fill="#ffba11"/>
        <path id="Path_12936" data-name="Path 12936" d="M66.6,79.624l7.248,4.389,11.058,4.111,14.254-3.16,2.01-6.087Z" transform="translate(9.463 11.207)" fill="#e3aacd"/>
        <path id="Path_12937" data-name="Path 12937" d="M60.408,57.387l-5.115,1.445L41.786,50.257l-4.34-10.01V33.76l2.7-6.738L41.79,15.691,52.3,14.529l15.4-12.068L88.52,4.447l14.381,7.84V32.808l-9.268-1.028L83.252,29.345,73.087,42.935H65.009Z" transform="translate(5.321 0.35)" fill="#040504"/>
      </g>
    </g>
    <path id="Path_12938" data-name="Path 12938" d="M269.636,83.555l3.74-6.234L247.024,65.748Z" transform="translate(35.098 9.342)" fill="#ffba11"/>
    <path id="Path_12939" data-name="Path 12939" d="M249.535,93.649l-9.26-22.911L254.765,90.5Z" transform="translate(34.139 10.051)" fill="#ffba11"/>
    <path id="Path_12940" data-name="Path 12940" d="M248.254,57.761l24.258,3.484.315-6.094Z" transform="translate(35.273 7.836)" fill="#ffba11"/>
    <rect id="Rectangle_9077" data-name="Rectangle 9077" width="50.54" height="56.01" transform="translate(166.688 27.894)" fill="#ffd882"/>
    <rect id="Rectangle_9078" data-name="Rectangle 9078" width="47.555" height="52.703" transform="translate(168.181 29.547)" fill="#344952"/>
    <rect id="Rectangle_9079" data-name="Rectangle 9079" width="50.54" height="56.01" transform="translate(227.471 24.471)" fill="#ffd882"/>
    <rect id="Rectangle_9080" data-name="Rectangle 9080" width="47.555" height="52.703" transform="translate(228.963 26.125)" fill="#344952"/>
  </g>
</svg>
