<svg xmlns="http://www.w3.org/2000/svg" width="286.159" height="179.221" viewBox="0 0 286.159 179.221">
  <g id="Group_32414" data-name="Group 32414" transform="translate(-13079.476 -20947.615)">
    <path id="Path_17896" data-name="Path 17896" d="M12441.069,21019.949l44.283-55.738,12.248,53.967-27.362,36.145Z" transform="translate(798.982 -9.028)" fill="#e8e8e8" stroke="#2050b1" stroke-width="0.3" stroke-dasharray="2"/>
    <path id="Path_17908" data-name="Path 17908" d="M12497.6,21019.949l-44.284-55.738-12.245,53.967,27.359,36.145Z" transform="translate(707.456 -9.028)" fill="#e8e8e8" stroke="#2050b1" stroke-width="0.3" stroke-dasharray="2"/>
    <path id="Path_17897" data-name="Path 17897" d="M12541.4,21090.949l-7.395-59.287,3.412-68.439,17.986,83.238Z" transform="translate(746.966 -8.475)" fill="#a9b8d5" stroke="#2050b1" stroke-width="0.3" stroke-dasharray="2"/>
    <path id="Path_17909" data-name="Path 17909" d="M12548.158,21090.738l7.242-59.076-3.413-68.439-17.985,83.238Z" transform="translate(608.742 -8.475)" fill="#d7deeb" stroke="#2050b1" stroke-width="0.3" stroke-dasharray="2"/>
    <path id="Path_17895" data-name="Path 17895" d="M12549.964,21119.064l40.979-105.164-29,101.527Z" transform="translate(738.03 -36.839)" fill="#a9b8d5" stroke="#2050b1" stroke-width="0.3" stroke-dasharray="2"/>
    <path id="Path_17907" data-name="Path 17907" d="M12590.939,21119.064l-40.979-105.164,29,101.527Z" transform="translate(566.175 -36.839)" fill="#d7deeb" stroke="#2050b1" stroke-width="0.3" stroke-dasharray="2"/>
    <path id="Path_17898" data-name="Path 17898" d="M12568.582,21046.432l32.791-32.533-26.576,60.762Z" transform="translate(727.611 -36.84)" fill="#d7deeb" stroke="#2050b1" stroke-width="0.3" stroke-dasharray="2"/>
    <path id="Path_17910" data-name="Path 17910" d="M12602.283,21046.379l-32.719-32.48,26.576,61.059,3.58-16.652Z" transform="translate(546.563 -36.84)" fill="#a9b8d5" stroke="#2050b1" stroke-width="0.3" stroke-dasharray="2"/>
    <path id="Path_17893" data-name="Path 17893" d="M12549.09,21180.113l-67.256,28.8-71.969,25.717,57.358,14.008Z" transform="translate(816.448 -129.873)" fill="#3b76cb" stroke="#2050b1" stroke-width="0.3" stroke-dasharray="2"/>
    <path id="Path_17905" data-name="Path 17905" d="M12409.866,21180.113l67.256,28.8,71.968,25.717-57.357,14.008Z" transform="translate(669.706 -129.873)" fill="#3b76cb" stroke="#2050b1" stroke-width="0.3" stroke-dasharray="2"/>
    <path id="Path_17899" data-name="Path 17899" d="M12482.023,21244.789l-15.2,40.355-57.595-14.166Z" transform="translate(816.805 -166.072)" fill="#e8e8e8" stroke="#2050b1" stroke-width="0.3" stroke-dasharray="2"/>
    <path id="Path_17911" data-name="Path 17911" d="M12409.226,21244.789l15.2,40.355,57.594-14.166Z" transform="translate(737.055 -166.072)" fill="#e8e8e8" stroke="#2050b1" stroke-width="0.3" stroke-dasharray="2"/>
    <path id="Path_17894" data-name="Path 17894" d="M12580.79,21189.992l59.853-9.883-67.043,28.793Z" transform="translate(724.802 -129.871)" fill="#a9b8d5" stroke="#2050b1" stroke-width="0.3" stroke-dasharray="2"/>
    <path id="Path_17906" data-name="Path 17906" d="M12633.451,21189.992l-59.852-9.883,67.043,28.793Z" transform="translate(506.066 -129.871)" fill="#a9b8d5" stroke="#2050b1" stroke-width="0.3" stroke-dasharray="2"/>
    <path id="Path_17917" data-name="Path 17917" d="M12409.226,21206.045l55.833-76.406,6.46,54.412Z" transform="translate(816.476 -101.099)" fill="#d7deeb" stroke="#2050b1" stroke-width="0.3" stroke-dasharray="2"/>
    <path id="Path_17918" data-name="Path 17918" d="M12471.519,21206.045l-55.832-76.406-6.461,54.412Z" transform="translate(747.89 -101.099)" fill="#a9b8d5" stroke="#2050b1" stroke-width="0.3" stroke-dasharray="2"/>
    <path id="Path_17902" data-name="Path 17902" d="M12401.33,21325.635l35.428-13.229-32.347-8.039Z" transform="translate(821.225 -199.421)" fill="#a9b8d5" stroke="#2050b1" stroke-width="0.3" stroke-dasharray="2"/>
    <path id="Path_17914" data-name="Path 17914" d="M12436.756,21325.635l-35.428-13.229,32.346-8.039Z" transform="translate(785.799 -199.421)" fill="#a9b8d5" stroke="#2050b1" stroke-width="0.3" stroke-dasharray="2"/>
    <path id="Path_17904" data-name="Path 17904" d="M12413,21310.066l-11.635,18.934" transform="translate(821.205 -202.613)" fill="none" stroke="#2050b1" stroke-width="0.3" stroke-dasharray="2"/>
    <path id="Path_17916" data-name="Path 17916" d="M12401.365,21310.066,12413,21329" transform="translate(809.539 -202.613)" fill="none" stroke="#2050b1" stroke-width="0.3" stroke-dasharray="2"/>
    <path id="Path_17901" data-name="Path 17901" d="M12401.33,21045.027v136.051l3.03-21.791,43.854-60.066Z" transform="translate(821.225 -54.264)" fill="#a9b8d5" stroke="#2050b1" stroke-width="0.3" stroke-dasharray="2"/>
    <path id="Path_17913" data-name="Path 17913" d="M12448.215,21045.027v136.051l-3.032-21.791-43.853-60.066Z" transform="translate(774.34 -54.264)" fill="#d7deeb" stroke="#2050b1" stroke-width="0.3" stroke-dasharray="2"/>
    <path id="Path_17903" data-name="Path 17903" d="M12401.33,20948.082v43.027l17.387,19.775,14.608-18.178Z" transform="translate(821.225)" fill="#d7deeb" stroke="#2050b1" stroke-width="0.3" stroke-dasharray="2"/>
    <path id="Path_17915" data-name="Path 17915" d="M12431.716,20948.082v43.027l-17.44,19.846-14.7-18.35Z" transform="translate(790.839)" fill="#a9b8d5" stroke="#2050b1" stroke-width="0.3" stroke-dasharray="2"/>
  </g>
</svg>
