<svg xmlns="http://www.w3.org/2000/svg" width="244.358" height="244.368" viewBox="0 0 244.358 244.368">
  <g id="Group_32408" data-name="Group 32408" transform="translate(-10758.804 -14133.651)">
    <path id="Path_17866" data-name="Path 17866" d="M10866.218,13807.848l-62.226-59.757,62.245-62.079Z" transform="translate(14.738 448.001)" fill="#d7deeb" stroke="#3b76cb" stroke-width="0.3" stroke-dasharray="3"/>
    <path id="Path_17867" data-name="Path 17867" d="M10803.969,13792.488h62.285l-62.285-59.84Z" transform="translate(14.735 463.335)" fill="#a9b8d6"/>
    <g id="Group_32405" data-name="Group 32405" transform="translate(10880.989 14193.562)">
      <path id="Path_17869" data-name="Path 17869" d="M62.212,121.767,0,62.079,62.245,0Z" transform="translate(121.811 0.026) rotate(90)" fill="#d7deeb" stroke="#3b76cb" stroke-width="0.3" stroke-dasharray="3"/>
      <path id="Path_17868" data-name="Path 17868" d="M0,59.84H62.286L0,0Z" transform="translate(59.84 0) rotate(90)" fill="#a9b8d6"/>
    </g>
    <g id="Group_32406" data-name="Group 32406" transform="translate(10943.275 14255.848) rotate(90)">
      <path id="Path_17869-2" data-name="Path 17869" d="M62.222,121.767,0,62.079,62.245,0Z" transform="translate(121.811 0.026) rotate(90)" fill="#d7deeb" stroke="#3b76cb" stroke-width="0.3" stroke-dasharray="3"/>
      <path id="Path_17868-2" data-name="Path 17868" d="M0,59.84H62.286L0,0Z" transform="translate(59.84) rotate(90)" fill="#a9b8d6"/>
    </g>
    <g id="Group_32407" data-name="Group 32407" transform="translate(10880.976 14318.134) rotate(180)">
      <path id="Path_17869-3" data-name="Path 17869" d="M62.211,121.753,0,62.079,62.245,0Z" transform="translate(121.811 0.026) rotate(90)" fill="#d7deeb" stroke="#3b76cb" stroke-width="0.3" stroke-dasharray="3"/>
      <path id="Path_17868-3" data-name="Path 17868" d="M0,59.84H62.286L0,0Z" transform="translate(59.84) rotate(90)" fill="#a9b8d6"/>
    </g>
  </g>
</svg>
