<svg xmlns="http://www.w3.org/2000/svg" width="259.248" height="251.546" viewBox="0 0 259.248 251.546">
  <g id="Group_32498" data-name="Group 32498" transform="translate(-19075.023 -16081.475)">
    <path id="Path_17994" data-name="Path 17994" d="M19198.2,16207.358l-57.555-57.131,59.324-68.073Z" transform="translate(6.577 -0.001)" fill="#d7deeb" stroke="#002561" stroke-width="0.5" stroke-dasharray="5"/>
    <path id="Path_17999" data-name="Path 17999" d="M57.551,125.2,0,68.073,59.321,0Z" transform="translate(19262.074 16332.342) rotate(180)" fill="#d7deeb" stroke="#002561" stroke-width="0.5" stroke-dasharray="5"/>
    <path id="Path_17996" data-name="Path 17996" d="M55.083,128.818,0,66.6,55.083,0Z" transform="translate(19075.738 16262.468) rotate(-90)" fill="#d7deeb" stroke="#002561" stroke-width="0.5" stroke-dasharray="5"/>
    <path id="Path_17998" data-name="Path 17998" d="M56.285,128.817,0,67.88,56.285,0Z" transform="translate(19333.557 16150.825) rotate(90)" fill="#d7deeb" stroke="#002561" stroke-width="0.5" stroke-dasharray="5"/>
    <path id="Path_17997" data-name="Path 17997" d="M56.882,0,0,57.53l56.882,71.5Z" transform="translate(19204.764 16150.476) rotate(90)" fill="#a9b8d5" stroke="#002561" stroke-width="0.5" stroke-dasharray="5"/>
    <path id="Path_18000" data-name="Path 18000" d="M56.882,0,0,57.53l56.882,71.5Z" transform="translate(19204.529 16264.021) rotate(-90)" fill="#a9b8d5" stroke="#002561" stroke-width="0.5" stroke-dasharray="5"/>
    <path id="Path_17995" data-name="Path 17995" d="M19253.824,16150.747l-60.859,56.622,1.617-125.043Z" transform="translate(11.874 0.016)" fill="#a9b8d5" stroke="#002561" stroke-width="0.5" stroke-dasharray="5"/>
    <path id="Path_18001" data-name="Path 18001" d="M61.913,69.647,0,125.043,1.618,0Z" transform="translate(19204.457 16332.153) rotate(180)" fill="#a9b8d5" stroke="#002561" stroke-width="0.5" stroke-dasharray="5"/>
  </g>
</svg>
